<svg xmlns="http://www.w3.org/2000/svg" width="1280" height="1560" viewBox="0 0 1280 1560">
<rect x="0" y="0" width="1280" height="1560" fill="#ffffff"/>

        <defs>
          <marker id="arrow" markerWidth="10" markerHeight="10" refX="8" refY="3" orient="auto" markerUnits="strokeWidth">
            <path d="M0,0 L0,6 L9,3 z" fill="#374151" />
          </marker>
          <marker id="arrowAccent" markerWidth="10" markerHeight="10" refX="8" refY="3" orient="auto" markerUnits="strokeWidth">
            <path d="M0,0 L0,6 L9,3 z" fill="#fd6000" />
          </marker>
        </defs>
        
<text x="80" y="70" font-family="Inter, Arial, sans-serif" font-size="28" font-weight="700" fill="#202124" text-anchor="start">Диаграмма деятельности подбора объектов по профилю клиента</text>
<circle cx="620" cy="130" r="20" fill="#fff1e8" stroke="#fd6000" stroke-width="2"/>
<text x="620" y="136" font-family="Inter, Arial, sans-serif" font-size="14" font-weight="400" fill="#202124" text-anchor="middle">Начало</text>
<rect x="470" y="180" width="300" height="64" rx="14" ry="14" fill="#ffffff" stroke="#374151" stroke-width="2"/>
<text x="496" y="218" font-family="Inter, Arial, sans-serif" font-size="16" font-weight="400" fill="#202124" text-anchor="start">Открытие формы создания</text>
<text x="496" y="238" font-family="Inter, Arial, sans-serif" font-size="16" font-weight="400" fill="#202124" text-anchor="start">клиента</text>
<line x1="620" y1="152" x2="620" y2="178" stroke="#374151" stroke-width="2" marker-end="url(#arrow)"/>
<rect x="470" y="274" width="300" height="64" rx="14" ry="14" fill="#ffffff" stroke="#374151" stroke-width="2"/>
<text x="496" y="312" font-family="Inter, Arial, sans-serif" font-size="16" font-weight="400" fill="#202124" text-anchor="start">Ввод данных клиента</text>
<line x1="620" y1="234" x2="620" y2="272" stroke="#374151" stroke-width="2" marker-end="url(#arrow)"/>
<rect x="470" y="368" width="300" height="64" rx="14" ry="14" fill="#ffffff" stroke="#374151" stroke-width="2"/>
<text x="496" y="406" font-family="Inter, Arial, sans-serif" font-size="16" font-weight="400" fill="#202124" text-anchor="start">Сохранение карточки клиента</text>
<line x1="620" y1="328" x2="620" y2="366" stroke="#374151" stroke-width="2" marker-end="url(#arrow)"/>
<rect x="470" y="462" width="300" height="64" rx="14" ry="14" fill="#ffffff" stroke="#374151" stroke-width="2"/>
<text x="496" y="500" font-family="Inter, Arial, sans-serif" font-size="16" font-weight="400" fill="#202124" text-anchor="start">Сохранение профиля поиска</text>
<line x1="620" y1="422" x2="620" y2="460" stroke="#374151" stroke-width="2" marker-end="url(#arrow)"/>
<rect x="470" y="556" width="300" height="64" rx="14" ry="14" fill="#ffffff" stroke="#374151" stroke-width="2"/>
<text x="496" y="594" font-family="Inter, Arial, sans-serif" font-size="16" font-weight="400" fill="#202124" text-anchor="start">Создание search_run</text>
<line x1="620" y1="516" x2="620" y2="554" stroke="#374151" stroke-width="2" marker-end="url(#arrow)"/>
<rect x="470" y="650" width="300" height="64" rx="14" ry="14" fill="#ffffff" stroke="#374151" stroke-width="2"/>
<text x="496" y="688" font-family="Inter, Arial, sans-serif" font-size="16" font-weight="400" fill="#202124" text-anchor="start">Запуск search-service</text>
<line x1="620" y1="610" x2="620" y2="648" stroke="#374151" stroke-width="2" marker-end="url(#arrow)"/>
<rect x="470" y="744" width="300" height="64" rx="14" ry="14" fill="#ffffff" stroke="#374151" stroke-width="2"/>
<text x="496" y="782" font-family="Inter, Arial, sans-serif" font-size="16" font-weight="400" fill="#202124" text-anchor="start">Выбор источников</text>
<line x1="620" y1="704" x2="620" y2="742" stroke="#374151" stroke-width="2" marker-end="url(#arrow)"/>
<rect x="470" y="838" width="300" height="64" rx="14" ry="14" fill="#ffffff" stroke="#374151" stroke-width="2"/>
<text x="496" y="876" font-family="Inter, Arial, sans-serif" font-size="16" font-weight="400" fill="#202124" text-anchor="start">Загрузка страниц</text>
<line x1="620" y1="798" x2="620" y2="836" stroke="#374151" stroke-width="2" marker-end="url(#arrow)"/>
<rect x="470" y="932" width="300" height="64" rx="14" ry="14" fill="#ffffff" stroke="#374151" stroke-width="2"/>
<text x="496" y="970" font-family="Inter, Arial, sans-serif" font-size="16" font-weight="400" fill="#202124" text-anchor="start">Извлечение карточек объектов</text>
<line x1="620" y1="892" x2="620" y2="930" stroke="#374151" stroke-width="2" marker-end="url(#arrow)"/>
<polygon points="620,1026 770,1071 620,1116 470,1071" fill="#fff7ed" stroke="#fd6000" stroke-width="2"/>
<text x="528" y="1068" font-family="Inter, Arial, sans-serif" font-size="14" font-weight="400" fill="#202124" text-anchor="start">Объект извлечен</text>
<text x="528" y="1086" font-family="Inter, Arial, sans-serif" font-size="14" font-weight="400" fill="#202124" text-anchor="start">корректно?</text>
<line x1="470" y1="1071" x2="200" y2="1071" stroke="#fd6000" stroke-width="2" marker-end="url(#arrowAccent)"/>
<text x="176" y="1064" font-family="Inter, Arial, sans-serif" font-size="14" font-weight="400" fill="#fd6000" text-anchor="start">нет</text>
<rect x="60" y="1041" width="120" height="60" rx="12" ry="12" fill="#fef2f2" stroke="#dc2626" stroke-width="2"/>
<text x="120" y="1078" font-family="Inter, Arial, sans-serif" font-size="18" font-weight="700" fill="#dc2626" text-anchor="middle">Пропуск</text>
<line x1="620" y1="986" x2="620" y2="1037" stroke="#374151" stroke-width="2" marker-end="url(#arrow)"/>
<rect x="470" y="1161" width="300" height="64" rx="14" ry="14" fill="#ffffff" stroke="#374151" stroke-width="2"/>
<text x="496" y="1199" font-family="Inter, Arial, sans-serif" font-size="16" font-weight="400" fill="#202124" text-anchor="start">Проверка принадлежности к</text>
<text x="496" y="1219" font-family="Inter, Arial, sans-serif" font-size="16" font-weight="400" fill="#202124" text-anchor="start">Краснодару</text>
<line x1="620" y1="1093" x2="620" y2="1159" stroke="#374151" stroke-width="2" marker-end="url(#arrow)"/>
<polygon points="620,1255 770,1300 620,1345 470,1300" fill="#fff7ed" stroke="#fd6000" stroke-width="2"/>
<text x="528" y="1297" font-family="Inter, Arial, sans-serif" font-size="14" font-weight="400" fill="#202124" text-anchor="start">Объект относится к</text>
<text x="528" y="1315" font-family="Inter, Arial, sans-serif" font-size="14" font-weight="400" fill="#202124" text-anchor="start">Краснодару?</text>
<line x1="470" y1="1300" x2="200" y2="1300" stroke="#fd6000" stroke-width="2" marker-end="url(#arrowAccent)"/>
<text x="176" y="1293" font-family="Inter, Arial, sans-serif" font-size="14" font-weight="400" fill="#fd6000" text-anchor="start">нет</text>
<rect x="60" y="1270" width="120" height="60" rx="12" ry="12" fill="#fef2f2" stroke="#dc2626" stroke-width="2"/>
<text x="120" y="1307" font-family="Inter, Arial, sans-serif" font-size="18" font-weight="700" fill="#dc2626" text-anchor="middle">Отклонить</text>
<line x1="620" y1="1215" x2="620" y2="1266" stroke="#374151" stroke-width="2" marker-end="url(#arrow)"/>
<rect x="470" y="1390" width="300" height="64" rx="14" ry="14" fill="#ffffff" stroke="#374151" stroke-width="2"/>
<text x="496" y="1428" font-family="Inter, Arial, sans-serif" font-size="16" font-weight="400" fill="#202124" text-anchor="start">Нормализация характеристик</text>
<line x1="620" y1="1322" x2="620" y2="1388" stroke="#374151" stroke-width="2" marker-end="url(#arrow)"/>
<rect x="470" y="1484" width="300" height="64" rx="14" ry="14" fill="#ffffff" stroke="#374151" stroke-width="2"/>
<text x="496" y="1522" font-family="Inter, Arial, sans-serif" font-size="16" font-weight="400" fill="#202124" text-anchor="start">Расчет процента совпадения</text>
<line x1="620" y1="1444" x2="620" y2="1482" stroke="#374151" stroke-width="2" marker-end="url(#arrow)"/>
<rect x="470" y="1578" width="300" height="64" rx="14" ry="14" fill="#ffffff" stroke="#374151" stroke-width="2"/>
<text x="496" y="1616" font-family="Inter, Arial, sans-serif" font-size="16" font-weight="400" fill="#202124" text-anchor="start">Сохранение properties</text>
<line x1="620" y1="1538" x2="620" y2="1576" stroke="#374151" stroke-width="2" marker-end="url(#arrow)"/>
<rect x="470" y="1672" width="300" height="64" rx="14" ry="14" fill="#ffffff" stroke="#374151" stroke-width="2"/>
<text x="496" y="1710" font-family="Inter, Arial, sans-serif" font-size="16" font-weight="400" fill="#202124" text-anchor="start">Сохранение</text>
<text x="496" y="1730" font-family="Inter, Arial, sans-serif" font-size="16" font-weight="400" fill="#202124" text-anchor="start">client_found_properties</text>
<line x1="620" y1="1632" x2="620" y2="1670" stroke="#374151" stroke-width="2" marker-end="url(#arrow)"/>
<rect x="470" y="1766" width="300" height="64" rx="14" ry="14" fill="#ffffff" stroke="#374151" stroke-width="2"/>
<text x="496" y="1804" font-family="Inter, Arial, sans-serif" font-size="16" font-weight="400" fill="#202124" text-anchor="start">Обновление статуса клиента</text>
<line x1="620" y1="1726" x2="620" y2="1764" stroke="#374151" stroke-width="2" marker-end="url(#arrow)"/>
<rect x="470" y="1860" width="300" height="64" rx="14" ry="14" fill="#ffffff" stroke="#374151" stroke-width="2"/>
<text x="496" y="1898" font-family="Inter, Arial, sans-serif" font-size="16" font-weight="400" fill="#202124" text-anchor="start">Отображение найденных</text>
<text x="496" y="1918" font-family="Inter, Arial, sans-serif" font-size="16" font-weight="400" fill="#202124" text-anchor="start">объектов</text>
<line x1="620" y1="1820" x2="620" y2="1858" stroke="#374151" stroke-width="2" marker-end="url(#arrow)"/>
<circle cx="620" cy="1974" r="20" fill="#fff1e8" stroke="#fd6000" stroke-width="2"/>
<text x="620" y="1980" font-family="Inter, Arial, sans-serif" font-size="14" font-weight="400" fill="#202124" text-anchor="middle">Конец</text>
<line x1="620" y1="1914" x2="620" y2="1940" stroke="#374151" stroke-width="2" marker-end="url(#arrow)"/>
<line x1="40" y1="1518" x2="1240" y2="1518" stroke="#d1d5db" stroke-width="1"/>
<text x="640" y="1546" font-family="Inter, Arial, sans-serif" font-size="18" font-weight="600" fill="#202124" text-anchor="middle">Рисунок 6 – Диаграмма деятельности подбора объектов недвижимости по профилю клиента</text>
</svg>