<svg xmlns="http://www.w3.org/2000/svg" width="1760" height="1160" viewBox="0 0 1760 1160">
<rect x="0" y="0" width="1760" height="1160" fill="#ffffff"/>

        <defs>
          <marker id="arrow" markerWidth="10" markerHeight="10" refX="8" refY="3" orient="auto" markerUnits="strokeWidth">
            <path d="M0,0 L0,6 L9,3 z" fill="#374151" />
          </marker>
          <marker id="arrowAccent" markerWidth="10" markerHeight="10" refX="8" refY="3" orient="auto" markerUnits="strokeWidth">
            <path d="M0,0 L0,6 L9,3 z" fill="#fd6000" />
          </marker>
        </defs>
        
<text x="80" y="70" font-family="Inter, Arial, sans-serif" font-size="28" font-weight="700" fill="#202124" text-anchor="start">ER-диаграмма: объекты, результаты поиска, подборки и сообщения</text>
<rect x="70" y="180" width="220" height="118" rx="10" ry="10" fill="#ffffff" stroke="#374151" stroke-width="2"/>
<rect x="70" y="180" width="220" height="36" rx="10" ry="10" fill="#fff1e8" stroke="#374151" stroke-width="2"/>
<text x="84" y="204" font-family="Inter, Arial, sans-serif" font-size="17" font-weight="700" fill="#202124" text-anchor="start">clients</text>
<text x="86" y="234" font-family="Inter, Arial, sans-serif" font-size="14" font-weight="400" fill="#202124" text-anchor="start">PK id</text>
<line x1="80" y1="242" x2="280" y2="242" stroke="#d1d5db" stroke-width="1"/>
<text x="86" y="256" font-family="Inter, Arial, sans-serif" font-size="14" font-weight="400" fill="#202124" text-anchor="start">status</text>
<line x1="80" y1="264" x2="280" y2="264" stroke="#d1d5db" stroke-width="1"/>
<text x="86" y="278" font-family="Inter, Arial, sans-serif" font-size="14" font-weight="400" fill="#202124" text-anchor="start">property_type</text>
<rect x="350" y="100" width="340" height="646" rx="10" ry="10" fill="#ffffff" stroke="#374151" stroke-width="2"/>
<rect x="350" y="100" width="340" height="36" rx="10" ry="10" fill="#fff1e8" stroke="#374151" stroke-width="2"/>
<text x="364" y="124" font-family="Inter, Arial, sans-serif" font-size="17" font-weight="700" fill="#202124" text-anchor="start">properties</text>
<text x="366" y="154" font-family="Inter, Arial, sans-serif" font-size="14" font-weight="400" fill="#202124" text-anchor="start">PK id</text>
<line x1="360" y1="162" x2="680" y2="162" stroke="#d1d5db" stroke-width="1"/>
<text x="366" y="176" font-family="Inter, Arial, sans-serif" font-size="14" font-weight="400" fill="#202124" text-anchor="start">external_id</text>
<line x1="360" y1="184" x2="680" y2="184" stroke="#d1d5db" stroke-width="1"/>
<text x="366" y="198" font-family="Inter, Arial, sans-serif" font-size="14" font-weight="400" fill="#202124" text-anchor="start">source_name</text>
<line x1="360" y1="206" x2="680" y2="206" stroke="#d1d5db" stroke-width="1"/>
<text x="366" y="220" font-family="Inter, Arial, sans-serif" font-size="14" font-weight="400" fill="#202124" text-anchor="start">source_url</text>
<line x1="360" y1="228" x2="680" y2="228" stroke="#d1d5db" stroke-width="1"/>
<text x="366" y="242" font-family="Inter, Arial, sans-serif" font-size="14" font-weight="400" fill="#202124" text-anchor="start">title</text>
<line x1="360" y1="250" x2="680" y2="250" stroke="#d1d5db" stroke-width="1"/>
<text x="366" y="264" font-family="Inter, Arial, sans-serif" font-size="14" font-weight="400" fill="#202124" text-anchor="start">complex_name</text>
<line x1="360" y1="272" x2="680" y2="272" stroke="#d1d5db" stroke-width="1"/>
<text x="366" y="286" font-family="Inter, Arial, sans-serif" font-size="14" font-weight="400" fill="#202124" text-anchor="start">developer_name</text>
<line x1="360" y1="294" x2="680" y2="294" stroke="#d1d5db" stroke-width="1"/>
<text x="366" y="308" font-family="Inter, Arial, sans-serif" font-size="14" font-weight="400" fill="#202124" text-anchor="start">description</text>
<line x1="360" y1="316" x2="680" y2="316" stroke="#d1d5db" stroke-width="1"/>
<text x="366" y="330" font-family="Inter, Arial, sans-serif" font-size="14" font-weight="400" fill="#202124" text-anchor="start">city</text>
<line x1="360" y1="338" x2="680" y2="338" stroke="#d1d5db" stroke-width="1"/>
<text x="366" y="352" font-family="Inter, Arial, sans-serif" font-size="14" font-weight="400" fill="#202124" text-anchor="start">district</text>
<line x1="360" y1="360" x2="680" y2="360" stroke="#d1d5db" stroke-width="1"/>
<text x="366" y="374" font-family="Inter, Arial, sans-serif" font-size="14" font-weight="400" fill="#202124" text-anchor="start">address</text>
<line x1="360" y1="382" x2="680" y2="382" stroke="#d1d5db" stroke-width="1"/>
<text x="366" y="396" font-family="Inter, Arial, sans-serif" font-size="14" font-weight="400" fill="#202124" text-anchor="start">settlement_name</text>
<line x1="360" y1="404" x2="680" y2="404" stroke="#d1d5db" stroke-width="1"/>
<text x="366" y="418" font-family="Inter, Arial, sans-serif" font-size="14" font-weight="400" fill="#202124" text-anchor="start">price</text>
<line x1="360" y1="426" x2="680" y2="426" stroke="#d1d5db" stroke-width="1"/>
<text x="366" y="440" font-family="Inter, Arial, sans-serif" font-size="14" font-weight="400" fill="#202124" text-anchor="start">price_per_meter</text>
<line x1="360" y1="448" x2="680" y2="448" stroke="#d1d5db" stroke-width="1"/>
<text x="366" y="462" font-family="Inter, Arial, sans-serif" font-size="14" font-weight="400" fill="#202124" text-anchor="start">area</text>
<line x1="360" y1="470" x2="680" y2="470" stroke="#d1d5db" stroke-width="1"/>
<text x="366" y="484" font-family="Inter, Arial, sans-serif" font-size="14" font-weight="400" fill="#202124" text-anchor="start">rooms</text>
<line x1="360" y1="492" x2="680" y2="492" stroke="#d1d5db" stroke-width="1"/>
<text x="366" y="506" font-family="Inter, Arial, sans-serif" font-size="14" font-weight="400" fill="#202124" text-anchor="start">floor</text>
<line x1="360" y1="514" x2="680" y2="514" stroke="#d1d5db" stroke-width="1"/>
<text x="366" y="528" font-family="Inter, Arial, sans-serif" font-size="14" font-weight="400" fill="#202124" text-anchor="start">floors_total</text>
<line x1="360" y1="536" x2="680" y2="536" stroke="#d1d5db" stroke-width="1"/>
<text x="366" y="550" font-family="Inter, Arial, sans-serif" font-size="14" font-weight="400" fill="#202124" text-anchor="start">house_area</text>
<line x1="360" y1="558" x2="680" y2="558" stroke="#d1d5db" stroke-width="1"/>
<text x="366" y="572" font-family="Inter, Arial, sans-serif" font-size="14" font-weight="400" fill="#202124" text-anchor="start">land_area</text>
<line x1="360" y1="580" x2="680" y2="580" stroke="#d1d5db" stroke-width="1"/>
<text x="366" y="594" font-family="Inter, Arial, sans-serif" font-size="14" font-weight="400" fill="#202124" text-anchor="start">bedrooms</text>
<line x1="360" y1="602" x2="680" y2="602" stroke="#d1d5db" stroke-width="1"/>
<text x="366" y="616" font-family="Inter, Arial, sans-serif" font-size="14" font-weight="400" fill="#202124" text-anchor="start">house_floors</text>
<line x1="360" y1="624" x2="680" y2="624" stroke="#d1d5db" stroke-width="1"/>
<text x="366" y="638" font-family="Inter, Arial, sans-serif" font-size="14" font-weight="400" fill="#202124" text-anchor="start">house_material</text>
<line x1="360" y1="646" x2="680" y2="646" stroke="#d1d5db" stroke-width="1"/>
<text x="366" y="660" font-family="Inter, Arial, sans-serif" font-size="14" font-weight="400" fill="#202124" text-anchor="start">communications[]</text>
<line x1="360" y1="668" x2="680" y2="668" stroke="#d1d5db" stroke-width="1"/>
<text x="366" y="682" font-family="Inter, Arial, sans-serif" font-size="14" font-weight="400" fill="#202124" text-anchor="start">completion_year</text>
<line x1="360" y1="690" x2="680" y2="690" stroke="#d1d5db" stroke-width="1"/>
<text x="366" y="704" font-family="Inter, Arial, sans-serif" font-size="14" font-weight="400" fill="#202124" text-anchor="start">finishing</text>
<line x1="360" y1="712" x2="680" y2="712" stroke="#d1d5db" stroke-width="1"/>
<text x="366" y="726" font-family="Inter, Arial, sans-serif" font-size="14" font-weight="400" fill="#202124" text-anchor="start">images[]</text>
<rect x="800" y="100" width="300" height="228" rx="10" ry="10" fill="#ffffff" stroke="#374151" stroke-width="2"/>
<rect x="800" y="100" width="300" height="36" rx="10" ry="10" fill="#fff1e8" stroke="#374151" stroke-width="2"/>
<text x="814" y="124" font-family="Inter, Arial, sans-serif" font-size="17" font-weight="700" fill="#202124" text-anchor="start">client_found_properties</text>
<text x="816" y="154" font-family="Inter, Arial, sans-serif" font-size="14" font-weight="400" fill="#202124" text-anchor="start">PK id</text>
<line x1="810" y1="162" x2="1090" y2="162" stroke="#d1d5db" stroke-width="1"/>
<text x="816" y="176" font-family="Inter, Arial, sans-serif" font-size="14" font-weight="400" fill="#202124" text-anchor="start">FK client_id</text>
<line x1="810" y1="184" x2="1090" y2="184" stroke="#d1d5db" stroke-width="1"/>
<text x="816" y="198" font-family="Inter, Arial, sans-serif" font-size="14" font-weight="400" fill="#202124" text-anchor="start">FK property_id</text>
<line x1="810" y1="206" x2="1090" y2="206" stroke="#d1d5db" stroke-width="1"/>
<text x="816" y="220" font-family="Inter, Arial, sans-serif" font-size="14" font-weight="400" fill="#202124" text-anchor="start">match_score</text>
<line x1="810" y1="228" x2="1090" y2="228" stroke="#d1d5db" stroke-width="1"/>
<text x="816" y="242" font-family="Inter, Arial, sans-serif" font-size="14" font-weight="400" fill="#202124" text-anchor="start">match_reasons[]</text>
<line x1="810" y1="250" x2="1090" y2="250" stroke="#d1d5db" stroke-width="1"/>
<text x="816" y="264" font-family="Inter, Arial, sans-serif" font-size="14" font-weight="400" fill="#202124" text-anchor="start">mismatch_reasons[]</text>
<line x1="810" y1="272" x2="1090" y2="272" stroke="#d1d5db" stroke-width="1"/>
<text x="816" y="286" font-family="Inter, Arial, sans-serif" font-size="14" font-weight="400" fill="#202124" text-anchor="start">is_hidden</text>
<line x1="810" y1="294" x2="1090" y2="294" stroke="#d1d5db" stroke-width="1"/>
<text x="816" y="308" font-family="Inter, Arial, sans-serif" font-size="14" font-weight="400" fill="#202124" text-anchor="start">created_at</text>
<rect x="1190" y="100" width="250" height="162" rx="10" ry="10" fill="#ffffff" stroke="#374151" stroke-width="2"/>
<rect x="1190" y="100" width="250" height="36" rx="10" ry="10" fill="#fff1e8" stroke="#374151" stroke-width="2"/>
<text x="1204" y="124" font-family="Inter, Arial, sans-serif" font-size="17" font-weight="700" fill="#202124" text-anchor="start">shortlist_items</text>
<text x="1206" y="154" font-family="Inter, Arial, sans-serif" font-size="14" font-weight="400" fill="#202124" text-anchor="start">PK id</text>
<line x1="1200" y1="162" x2="1430" y2="162" stroke="#d1d5db" stroke-width="1"/>
<text x="1206" y="176" font-family="Inter, Arial, sans-serif" font-size="14" font-weight="400" fill="#202124" text-anchor="start">FK client_id</text>
<line x1="1200" y1="184" x2="1430" y2="184" stroke="#d1d5db" stroke-width="1"/>
<text x="1206" y="198" font-family="Inter, Arial, sans-serif" font-size="14" font-weight="400" fill="#202124" text-anchor="start">FK property_id</text>
<line x1="1200" y1="206" x2="1430" y2="206" stroke="#d1d5db" stroke-width="1"/>
<text x="1206" y="220" font-family="Inter, Arial, sans-serif" font-size="14" font-weight="400" fill="#202124" text-anchor="start">note</text>
<line x1="1200" y1="228" x2="1430" y2="228" stroke="#d1d5db" stroke-width="1"/>
<text x="1206" y="242" font-family="Inter, Arial, sans-serif" font-size="14" font-weight="400" fill="#202124" text-anchor="start">created_at</text>
<rect x="800" y="700" width="310" height="228" rx="10" ry="10" fill="#ffffff" stroke="#374151" stroke-width="2"/>
<rect x="800" y="700" width="310" height="36" rx="10" ry="10" fill="#fff1e8" stroke="#374151" stroke-width="2"/>
<text x="814" y="724" font-family="Inter, Arial, sans-serif" font-size="17" font-weight="700" fill="#202124" text-anchor="start">share_messages</text>
<text x="816" y="754" font-family="Inter, Arial, sans-serif" font-size="14" font-weight="400" fill="#202124" text-anchor="start">PK id</text>
<line x1="810" y1="762" x2="1100" y2="762" stroke="#d1d5db" stroke-width="1"/>
<text x="816" y="776" font-family="Inter, Arial, sans-serif" font-size="14" font-weight="400" fill="#202124" text-anchor="start">FK client_id</text>
<line x1="810" y1="784" x2="1100" y2="784" stroke="#d1d5db" stroke-width="1"/>
<text x="816" y="798" font-family="Inter, Arial, sans-serif" font-size="14" font-weight="400" fill="#202124" text-anchor="start">channel</text>
<line x1="810" y1="806" x2="1100" y2="806" stroke="#d1d5db" stroke-width="1"/>
<text x="816" y="820" font-family="Inter, Arial, sans-serif" font-size="14" font-weight="400" fill="#202124" text-anchor="start">contact</text>
<line x1="810" y1="828" x2="1100" y2="828" stroke="#d1d5db" stroke-width="1"/>
<text x="816" y="842" font-family="Inter, Arial, sans-serif" font-size="14" font-weight="400" fill="#202124" text-anchor="start">message_text</text>
<line x1="810" y1="850" x2="1100" y2="850" stroke="#d1d5db" stroke-width="1"/>
<text x="816" y="864" font-family="Inter, Arial, sans-serif" font-size="14" font-weight="400" fill="#202124" text-anchor="start">copied_at</text>
<line x1="810" y1="872" x2="1100" y2="872" stroke="#d1d5db" stroke-width="1"/>
<text x="816" y="886" font-family="Inter, Arial, sans-serif" font-size="14" font-weight="400" fill="#202124" text-anchor="start">sent_marked_at</text>
<line x1="810" y1="894" x2="1100" y2="894" stroke="#d1d5db" stroke-width="1"/>
<text x="816" y="908" font-family="Inter, Arial, sans-serif" font-size="14" font-weight="400" fill="#202124" text-anchor="start">created_at</text>
<line x1="290" y1="290" x2="350" y2="290" stroke="#374151" stroke-width="2" marker-end="url(#arrow)"/>
<text x="316" y="272" font-family="Inter, Arial, sans-serif" font-size="16" font-weight="700" fill="#fd6000" text-anchor="start">1 : M</text>
<line x1="690" y1="270" x2="800" y2="270" stroke="#374151" stroke-width="2" marker-end="url(#arrow)"/>
<text x="742" y="252" font-family="Inter, Arial, sans-serif" font-size="16" font-weight="700" fill="#fd6000" text-anchor="start">1 : M</text>
<line x1="690" y1="350" x2="1190" y2="270" stroke="#374151" stroke-width="2" marker-end="url(#arrow)"/>
<text x="952" y="302" font-family="Inter, Arial, sans-serif" font-size="16" font-weight="700" fill="#fd6000" text-anchor="start">1 : M</text>
<line x1="180" y1="360" x2="890" y2="700" stroke="#374151" stroke-width="2" marker-end="url(#arrow)"/>
<text x="510" y="520" font-family="Inter, Arial, sans-serif" font-size="16" font-weight="700" fill="#fd6000" text-anchor="start">1 : M</text>
<rect x="1190" y="470" width="420" height="220" rx="16" ry="16" fill="#f8fafc" stroke="#d1d5db" stroke-width="2"/>
<text x="1210" y="510" font-family="Inter, Arial, sans-serif" font-size="18" font-weight="700" fill="#202124" text-anchor="start">Смысл второго фрагмента</text>
<text x="1210" y="546" font-family="Inter, Arial, sans-serif" font-size="15" font-weight="400" fill="#6b7280" text-anchor="start">properties хранит нормализованный</text>
<text x="1210" y="568" font-family="Inter, Arial, sans-serif" font-size="15" font-weight="400" fill="#6b7280" text-anchor="start">общий каталог объектов;</text>
<text x="1210" y="590" font-family="Inter, Arial, sans-serif" font-size="15" font-weight="400" fill="#6b7280" text-anchor="start">client_found_properties связывает</text>
<text x="1210" y="612" font-family="Inter, Arial, sans-serif" font-size="15" font-weight="400" fill="#6b7280" text-anchor="start">найденный объект с конкретным</text>
<text x="1210" y="634" font-family="Inter, Arial, sans-serif" font-size="15" font-weight="400" fill="#6b7280" text-anchor="start">клиентом и хранит matchScore;</text>
<text x="1210" y="656" font-family="Inter, Arial, sans-serif" font-size="15" font-weight="400" fill="#6b7280" text-anchor="start">shortlist_items отражает ручной</text>
<text x="1210" y="678" font-family="Inter, Arial, sans-serif" font-size="15" font-weight="400" fill="#6b7280" text-anchor="start">выбор риелтора;</text>
<text x="1210" y="700" font-family="Inter, Arial, sans-serif" font-size="15" font-weight="400" fill="#6b7280" text-anchor="start">share_messages фиксирует</text>
<text x="1210" y="722" font-family="Inter, Arial, sans-serif" font-size="15" font-weight="400" fill="#6b7280" text-anchor="start">подготовленный текст подборки.</text>
<line x1="40" y1="1118" x2="1720" y2="1118" stroke="#d1d5db" stroke-width="1"/>
<text x="880" y="1146" font-family="Inter, Arial, sans-serif" font-size="18" font-weight="600" fill="#202124" text-anchor="middle">Рисунок 10 – Фрагмент ER-диаграммы базы данных: объекты недвижимости, результаты поиска, подборки и сообщения</text>
</svg>