<svg xmlns="http://www.w3.org/2000/svg" width="1560" height="1100" viewBox="0 0 1560 1100">
<rect x="0" y="0" width="1560" height="1100" fill="#ffffff"/>

        <defs>
          <marker id="arrow" markerWidth="10" markerHeight="10" refX="8" refY="3" orient="auto" markerUnits="strokeWidth">
            <path d="M0,0 L0,6 L9,3 z" fill="#374151" />
          </marker>
          <marker id="arrowAccent" markerWidth="10" markerHeight="10" refX="8" refY="3" orient="auto" markerUnits="strokeWidth">
            <path d="M0,0 L0,6 L9,3 z" fill="#fd6000" />
          </marker>
        </defs>
        
<text x="80" y="70" font-family="Inter, Arial, sans-serif" font-size="28" font-weight="700" fill="#202124" text-anchor="start">ER-диаграмма: пользователи, клиенты, профили поиска и история запусков</text>
<rect x="80" y="190" width="280" height="228" rx="10" ry="10" fill="#ffffff" stroke="#374151" stroke-width="2"/>
<rect x="80" y="190" width="280" height="36" rx="10" ry="10" fill="#fff1e8" stroke="#374151" stroke-width="2"/>
<text x="94" y="214" font-family="Inter, Arial, sans-serif" font-size="17" font-weight="700" fill="#202124" text-anchor="start">users</text>
<text x="96" y="244" font-family="Inter, Arial, sans-serif" font-size="14" font-weight="400" fill="#202124" text-anchor="start">PK id</text>
<line x1="90" y1="252" x2="350" y2="252" stroke="#d1d5db" stroke-width="1"/>
<text x="96" y="266" font-family="Inter, Arial, sans-serif" font-size="14" font-weight="400" fill="#202124" text-anchor="start">login</text>
<line x1="90" y1="274" x2="350" y2="274" stroke="#d1d5db" stroke-width="1"/>
<text x="96" y="288" font-family="Inter, Arial, sans-serif" font-size="14" font-weight="400" fill="#202124" text-anchor="start">password_hash</text>
<line x1="90" y1="296" x2="350" y2="296" stroke="#d1d5db" stroke-width="1"/>
<text x="96" y="310" font-family="Inter, Arial, sans-serif" font-size="14" font-weight="400" fill="#202124" text-anchor="start">name</text>
<line x1="90" y1="318" x2="350" y2="318" stroke="#d1d5db" stroke-width="1"/>
<text x="96" y="332" font-family="Inter, Arial, sans-serif" font-size="14" font-weight="400" fill="#202124" text-anchor="start">email</text>
<line x1="90" y1="340" x2="350" y2="340" stroke="#d1d5db" stroke-width="1"/>
<text x="96" y="354" font-family="Inter, Arial, sans-serif" font-size="14" font-weight="400" fill="#202124" text-anchor="start">phone</text>
<line x1="90" y1="362" x2="350" y2="362" stroke="#d1d5db" stroke-width="1"/>
<text x="96" y="376" font-family="Inter, Arial, sans-serif" font-size="14" font-weight="400" fill="#202124" text-anchor="start">created_at</text>
<line x1="90" y1="384" x2="350" y2="384" stroke="#d1d5db" stroke-width="1"/>
<text x="96" y="398" font-family="Inter, Arial, sans-serif" font-size="14" font-weight="400" fill="#202124" text-anchor="start">updated_at</text>
<rect x="430" y="170" width="320" height="316" rx="10" ry="10" fill="#ffffff" stroke="#374151" stroke-width="2"/>
<rect x="430" y="170" width="320" height="36" rx="10" ry="10" fill="#fff1e8" stroke="#374151" stroke-width="2"/>
<text x="444" y="194" font-family="Inter, Arial, sans-serif" font-size="17" font-weight="700" fill="#202124" text-anchor="start">clients</text>
<text x="446" y="224" font-family="Inter, Arial, sans-serif" font-size="14" font-weight="400" fill="#202124" text-anchor="start">PK id</text>
<line x1="440" y1="232" x2="740" y2="232" stroke="#d1d5db" stroke-width="1"/>
<text x="446" y="246" font-family="Inter, Arial, sans-serif" font-size="14" font-weight="400" fill="#202124" text-anchor="start">FK realtor_id</text>
<line x1="440" y1="254" x2="740" y2="254" stroke="#d1d5db" stroke-width="1"/>
<text x="446" y="268" font-family="Inter, Arial, sans-serif" font-size="14" font-weight="400" fill="#202124" text-anchor="start">name</text>
<line x1="440" y1="276" x2="740" y2="276" stroke="#d1d5db" stroke-width="1"/>
<text x="446" y="290" font-family="Inter, Arial, sans-serif" font-size="14" font-weight="400" fill="#202124" text-anchor="start">phone</text>
<line x1="440" y1="298" x2="740" y2="298" stroke="#d1d5db" stroke-width="1"/>
<text x="446" y="312" font-family="Inter, Arial, sans-serif" font-size="14" font-weight="400" fill="#202124" text-anchor="start">email</text>
<line x1="440" y1="320" x2="740" y2="320" stroke="#d1d5db" stroke-width="1"/>
<text x="446" y="334" font-family="Inter, Arial, sans-serif" font-size="14" font-weight="400" fill="#202124" text-anchor="start">send_channel</text>
<line x1="440" y1="342" x2="740" y2="342" stroke="#d1d5db" stroke-width="1"/>
<text x="446" y="356" font-family="Inter, Arial, sans-serif" font-size="14" font-weight="400" fill="#202124" text-anchor="start">send_contact</text>
<line x1="440" y1="364" x2="740" y2="364" stroke="#d1d5db" stroke-width="1"/>
<text x="446" y="378" font-family="Inter, Arial, sans-serif" font-size="14" font-weight="400" fill="#202124" text-anchor="start">status</text>
<line x1="440" y1="386" x2="740" y2="386" stroke="#d1d5db" stroke-width="1"/>
<text x="446" y="400" font-family="Inter, Arial, sans-serif" font-size="14" font-weight="400" fill="#202124" text-anchor="start">property_type</text>
<line x1="440" y1="408" x2="740" y2="408" stroke="#d1d5db" stroke-width="1"/>
<text x="446" y="422" font-family="Inter, Arial, sans-serif" font-size="14" font-weight="400" fill="#202124" text-anchor="start">comment</text>
<line x1="440" y1="430" x2="740" y2="430" stroke="#d1d5db" stroke-width="1"/>
<text x="446" y="444" font-family="Inter, Arial, sans-serif" font-size="14" font-weight="400" fill="#202124" text-anchor="start">created_at</text>
<line x1="440" y1="452" x2="740" y2="452" stroke="#d1d5db" stroke-width="1"/>
<text x="446" y="466" font-family="Inter, Arial, sans-serif" font-size="14" font-weight="400" fill="#202124" text-anchor="start">updated_at</text>
<rect x="820" y="120" width="340" height="360" rx="10" ry="10" fill="#ffffff" stroke="#374151" stroke-width="2"/>
<rect x="820" y="120" width="340" height="36" rx="10" ry="10" fill="#fff1e8" stroke="#374151" stroke-width="2"/>
<text x="834" y="144" font-family="Inter, Arial, sans-serif" font-size="17" font-weight="700" fill="#202124" text-anchor="start">client_search_profiles</text>
<text x="836" y="174" font-family="Inter, Arial, sans-serif" font-size="14" font-weight="400" fill="#202124" text-anchor="start">PK id</text>
<line x1="830" y1="182" x2="1150" y2="182" stroke="#d1d5db" stroke-width="1"/>
<text x="836" y="196" font-family="Inter, Arial, sans-serif" font-size="14" font-weight="400" fill="#202124" text-anchor="start">UQ FK client_id</text>
<line x1="830" y1="204" x2="1150" y2="204" stroke="#d1d5db" stroke-width="1"/>
<text x="836" y="218" font-family="Inter, Arial, sans-serif" font-size="14" font-weight="400" fill="#202124" text-anchor="start">budget_min / budget_max</text>
<line x1="830" y1="226" x2="1150" y2="226" stroke="#d1d5db" stroke-width="1"/>
<text x="836" y="240" font-family="Inter, Arial, sans-serif" font-size="14" font-weight="400" fill="#202124" text-anchor="start">rooms_min / rooms_max</text>
<line x1="830" y1="248" x2="1150" y2="248" stroke="#d1d5db" stroke-width="1"/>
<text x="836" y="262" font-family="Inter, Arial, sans-serif" font-size="14" font-weight="400" fill="#202124" text-anchor="start">area_min / area_max</text>
<line x1="830" y1="270" x2="1150" y2="270" stroke="#d1d5db" stroke-width="1"/>
<text x="836" y="284" font-family="Inter, Arial, sans-serif" font-size="14" font-weight="400" fill="#202124" text-anchor="start">districts[]</text>
<line x1="830" y1="292" x2="1150" y2="292" stroke="#d1d5db" stroke-width="1"/>
<text x="836" y="306" font-family="Inter, Arial, sans-serif" font-size="14" font-weight="400" fill="#202124" text-anchor="start">settlement_names[]</text>
<line x1="830" y1="314" x2="1150" y2="314" stroke="#d1d5db" stroke-width="1"/>
<text x="836" y="328" font-family="Inter, Arial, sans-serif" font-size="14" font-weight="400" fill="#202124" text-anchor="start">completion_year_min / max</text>
<line x1="830" y1="336" x2="1150" y2="336" stroke="#d1d5db" stroke-width="1"/>
<text x="836" y="350" font-family="Inter, Arial, sans-serif" font-size="14" font-weight="400" fill="#202124" text-anchor="start">finishing</text>
<line x1="830" y1="358" x2="1150" y2="358" stroke="#d1d5db" stroke-width="1"/>
<text x="836" y="372" font-family="Inter, Arial, sans-serif" font-size="14" font-weight="400" fill="#202124" text-anchor="start">floor_min / floor_max</text>
<line x1="830" y1="380" x2="1150" y2="380" stroke="#d1d5db" stroke-width="1"/>
<text x="836" y="394" font-family="Inter, Arial, sans-serif" font-size="14" font-weight="400" fill="#202124" text-anchor="start">house_area_min / max</text>
<line x1="830" y1="402" x2="1150" y2="402" stroke="#d1d5db" stroke-width="1"/>
<text x="836" y="416" font-family="Inter, Arial, sans-serif" font-size="14" font-weight="400" fill="#202124" text-anchor="start">land_area_min / max</text>
<line x1="830" y1="424" x2="1150" y2="424" stroke="#d1d5db" stroke-width="1"/>
<text x="836" y="438" font-family="Inter, Arial, sans-serif" font-size="14" font-weight="400" fill="#202124" text-anchor="start">bedrooms_min / max</text>
<line x1="830" y1="446" x2="1150" y2="446" stroke="#d1d5db" stroke-width="1"/>
<text x="836" y="460" font-family="Inter, Arial, sans-serif" font-size="14" font-weight="400" fill="#202124" text-anchor="start">communications[]</text>
<rect x="1180" y="520" width="280" height="250" rx="10" ry="10" fill="#ffffff" stroke="#374151" stroke-width="2"/>
<rect x="1180" y="520" width="280" height="36" rx="10" ry="10" fill="#fff1e8" stroke="#374151" stroke-width="2"/>
<text x="1194" y="544" font-family="Inter, Arial, sans-serif" font-size="17" font-weight="700" fill="#202124" text-anchor="start">search_runs</text>
<text x="1196" y="574" font-family="Inter, Arial, sans-serif" font-size="14" font-weight="400" fill="#202124" text-anchor="start">PK id</text>
<line x1="1190" y1="582" x2="1450" y2="582" stroke="#d1d5db" stroke-width="1"/>
<text x="1196" y="596" font-family="Inter, Arial, sans-serif" font-size="14" font-weight="400" fill="#202124" text-anchor="start">FK client_id</text>
<line x1="1190" y1="604" x2="1450" y2="604" stroke="#d1d5db" stroke-width="1"/>
<text x="1196" y="618" font-family="Inter, Arial, sans-serif" font-size="14" font-weight="400" fill="#202124" text-anchor="start">status</text>
<line x1="1190" y1="626" x2="1450" y2="626" stroke="#d1d5db" stroke-width="1"/>
<text x="1196" y="640" font-family="Inter, Arial, sans-serif" font-size="14" font-weight="400" fill="#202124" text-anchor="start">property_type</text>
<line x1="1190" y1="648" x2="1450" y2="648" stroke="#d1d5db" stroke-width="1"/>
<text x="1196" y="662" font-family="Inter, Arial, sans-serif" font-size="14" font-weight="400" fill="#202124" text-anchor="start">total_found</text>
<line x1="1190" y1="670" x2="1450" y2="670" stroke="#d1d5db" stroke-width="1"/>
<text x="1196" y="684" font-family="Inter, Arial, sans-serif" font-size="14" font-weight="400" fill="#202124" text-anchor="start">total_saved</text>
<line x1="1190" y1="692" x2="1450" y2="692" stroke="#d1d5db" stroke-width="1"/>
<text x="1196" y="706" font-family="Inter, Arial, sans-serif" font-size="14" font-weight="400" fill="#202124" text-anchor="start">error_message</text>
<line x1="1190" y1="714" x2="1450" y2="714" stroke="#d1d5db" stroke-width="1"/>
<text x="1196" y="728" font-family="Inter, Arial, sans-serif" font-size="14" font-weight="400" fill="#202124" text-anchor="start">started_at</text>
<line x1="1190" y1="736" x2="1450" y2="736" stroke="#d1d5db" stroke-width="1"/>
<text x="1196" y="750" font-family="Inter, Arial, sans-serif" font-size="14" font-weight="400" fill="#202124" text-anchor="start">finished_at</text>
<line x1="360" y1="320" x2="430" y2="320" stroke="#374151" stroke-width="2" marker-end="url(#arrow)"/>
<text x="392" y="302" font-family="Inter, Arial, sans-serif" font-size="16" font-weight="700" fill="#fd6000" text-anchor="start">1 : M</text>
<line x1="750" y1="300" x2="820" y2="300" stroke="#374151" stroke-width="2" marker-end="url(#arrow)"/>
<text x="782" y="282" font-family="Inter, Arial, sans-serif" font-size="16" font-weight="700" fill="#fd6000" text-anchor="start">1 : 1</text>
<line x1="590" y1="420" x2="1180" y2="600" stroke="#374151" stroke-width="2" marker-end="url(#arrow)"/>
<text x="860" y="530" font-family="Inter, Arial, sans-serif" font-size="16" font-weight="700" fill="#fd6000" text-anchor="start">1 : M</text>
<rect x="80" y="640" width="520" height="230" rx="16" ry="16" fill="#f8fafc" stroke="#d1d5db" stroke-width="2"/>
<text x="100" y="680" font-family="Inter, Arial, sans-serif" font-size="18" font-weight="700" fill="#202124" text-anchor="start">Что важно подчеркнуть на схеме</text>
<text x="100" y="716" font-family="Inter, Arial, sans-serif" font-size="15" font-weight="400" fill="#6b7280" text-anchor="start">таблица clients является центром</text>
<text x="100" y="738" font-family="Inter, Arial, sans-serif" font-size="15" font-weight="400" fill="#6b7280" text-anchor="start">пользовательского контура;</text>
<text x="100" y="760" font-family="Inter, Arial, sans-serif" font-size="15" font-weight="400" fill="#6b7280" text-anchor="start">client_search_profiles хранит один</text>
<text x="100" y="782" font-family="Inter, Arial, sans-serif" font-size="15" font-weight="400" fill="#6b7280" text-anchor="start">актуальный профиль поиска;</text>
<text x="100" y="804" font-family="Inter, Arial, sans-serif" font-size="15" font-weight="400" fill="#6b7280" text-anchor="start">search_runs фиксирует каждую попытку</text>
<text x="100" y="826" font-family="Inter, Arial, sans-serif" font-size="15" font-weight="400" fill="#6b7280" text-anchor="start">запуска поиска и ее результат;</text>
<text x="100" y="848" font-family="Inter, Arial, sans-serif" font-size="15" font-weight="400" fill="#6b7280" text-anchor="start">users связана с клиентами через</text>
<text x="100" y="870" font-family="Inter, Arial, sans-serif" font-size="15" font-weight="400" fill="#6b7280" text-anchor="start">realtor_id.</text>
<line x1="40" y1="1058" x2="1520" y2="1058" stroke="#d1d5db" stroke-width="1"/>
<text x="780" y="1086" font-family="Inter, Arial, sans-serif" font-size="18" font-weight="600" fill="#202124" text-anchor="middle">Рисунок 9 – Фрагмент ER-диаграммы базы данных: пользователи системы, карточки клиентов, профили поиска и история запусков</text>
</svg>