<svg xmlns="http://www.w3.org/2000/svg" width="1560" height="1040" viewBox="0 0 1560 1040">
<rect x="0" y="0" width="1560" height="1040" fill="#ffffff"/>

        <defs>
          <marker id="arrow" markerWidth="10" markerHeight="10" refX="8" refY="3" orient="auto" markerUnits="strokeWidth">
            <path d="M0,0 L0,6 L9,3 z" fill="#374151" />
          </marker>
          <marker id="arrowAccent" markerWidth="10" markerHeight="10" refX="8" refY="3" orient="auto" markerUnits="strokeWidth">
            <path d="M0,0 L0,6 L9,3 z" fill="#fd6000" />
          </marker>
        </defs>
        
<text x="80" y="70" font-family="Inter, Arial, sans-serif" font-size="28" font-weight="700" fill="#202124" text-anchor="start">ER-диаграмма: объекты, результаты поиска, подборки и сообщения</text>
<rect x="80" y="200" width="240" height="118" rx="10" ry="10" fill="#ffffff" stroke="#374151" stroke-width="2"/>
<rect x="80" y="200" width="240" height="36" rx="10" ry="10" fill="#fff1e8" stroke="#374151" stroke-width="2"/>
<text x="94" y="224" font-family="Inter, Arial, sans-serif" font-size="17" font-weight="700" fill="#202124" text-anchor="start">clients</text>
<text x="96" y="254" font-family="Inter, Arial, sans-serif" font-size="14" font-weight="400" fill="#202124" text-anchor="start">PK id</text>
<line x1="90" y1="262" x2="310" y2="262" stroke="#d1d5db" stroke-width="1"/>
<text x="96" y="276" font-family="Inter, Arial, sans-serif" font-size="14" font-weight="400" fill="#202124" text-anchor="start">status</text>
<line x1="90" y1="284" x2="310" y2="284" stroke="#d1d5db" stroke-width="1"/>
<text x="96" y="298" font-family="Inter, Arial, sans-serif" font-size="14" font-weight="400" fill="#202124" text-anchor="start">property_type</text>
<rect x="420" y="120" width="320" height="228" rx="10" ry="10" fill="#ffffff" stroke="#374151" stroke-width="2"/>
<rect x="420" y="120" width="320" height="36" rx="10" ry="10" fill="#fff1e8" stroke="#374151" stroke-width="2"/>
<text x="434" y="144" font-family="Inter, Arial, sans-serif" font-size="17" font-weight="700" fill="#202124" text-anchor="start">properties</text>
<text x="436" y="174" font-family="Inter, Arial, sans-serif" font-size="14" font-weight="400" fill="#202124" text-anchor="start">PK id</text>
<line x1="430" y1="182" x2="730" y2="182" stroke="#d1d5db" stroke-width="1"/>
<text x="436" y="196" font-family="Inter, Arial, sans-serif" font-size="14" font-weight="400" fill="#202124" text-anchor="start">source_url</text>
<line x1="430" y1="204" x2="730" y2="204" stroke="#d1d5db" stroke-width="1"/>
<text x="436" y="218" font-family="Inter, Arial, sans-serif" font-size="14" font-weight="400" fill="#202124" text-anchor="start">title</text>
<line x1="430" y1="226" x2="730" y2="226" stroke="#d1d5db" stroke-width="1"/>
<text x="436" y="240" font-family="Inter, Arial, sans-serif" font-size="14" font-weight="400" fill="#202124" text-anchor="start">district</text>
<line x1="430" y1="248" x2="730" y2="248" stroke="#d1d5db" stroke-width="1"/>
<text x="436" y="262" font-family="Inter, Arial, sans-serif" font-size="14" font-weight="400" fill="#202124" text-anchor="start">price</text>
<line x1="430" y1="270" x2="730" y2="270" stroke="#d1d5db" stroke-width="1"/>
<text x="436" y="284" font-family="Inter, Arial, sans-serif" font-size="14" font-weight="400" fill="#202124" text-anchor="start">area</text>
<line x1="430" y1="292" x2="730" y2="292" stroke="#d1d5db" stroke-width="1"/>
<text x="436" y="306" font-family="Inter, Arial, sans-serif" font-size="14" font-weight="400" fill="#202124" text-anchor="start">rooms</text>
<line x1="430" y1="314" x2="730" y2="314" stroke="#d1d5db" stroke-width="1"/>
<text x="436" y="328" font-family="Inter, Arial, sans-serif" font-size="14" font-weight="400" fill="#202124" text-anchor="start">images[]</text>
<rect x="830" y="120" width="340" height="206" rx="10" ry="10" fill="#ffffff" stroke="#374151" stroke-width="2"/>
<rect x="830" y="120" width="340" height="36" rx="10" ry="10" fill="#fff1e8" stroke="#374151" stroke-width="2"/>
<text x="844" y="144" font-family="Inter, Arial, sans-serif" font-size="17" font-weight="700" fill="#202124" text-anchor="start">client_found_properties</text>
<text x="846" y="174" font-family="Inter, Arial, sans-serif" font-size="14" font-weight="400" fill="#202124" text-anchor="start">PK id</text>
<line x1="840" y1="182" x2="1160" y2="182" stroke="#d1d5db" stroke-width="1"/>
<text x="846" y="196" font-family="Inter, Arial, sans-serif" font-size="14" font-weight="400" fill="#202124" text-anchor="start">FK client_id</text>
<line x1="840" y1="204" x2="1160" y2="204" stroke="#d1d5db" stroke-width="1"/>
<text x="846" y="218" font-family="Inter, Arial, sans-serif" font-size="14" font-weight="400" fill="#202124" text-anchor="start">FK property_id</text>
<line x1="840" y1="226" x2="1160" y2="226" stroke="#d1d5db" stroke-width="1"/>
<text x="846" y="240" font-family="Inter, Arial, sans-serif" font-size="14" font-weight="400" fill="#202124" text-anchor="start">match_score</text>
<line x1="840" y1="248" x2="1160" y2="248" stroke="#d1d5db" stroke-width="1"/>
<text x="846" y="262" font-family="Inter, Arial, sans-serif" font-size="14" font-weight="400" fill="#202124" text-anchor="start">match_reasons[]</text>
<line x1="840" y1="270" x2="1160" y2="270" stroke="#d1d5db" stroke-width="1"/>
<text x="846" y="284" font-family="Inter, Arial, sans-serif" font-size="14" font-weight="400" fill="#202124" text-anchor="start">mismatch_reasons[]</text>
<line x1="840" y1="292" x2="1160" y2="292" stroke="#d1d5db" stroke-width="1"/>
<text x="846" y="306" font-family="Inter, Arial, sans-serif" font-size="14" font-weight="400" fill="#202124" text-anchor="start">is_hidden</text>
<rect x="1260" y="120" width="240" height="162" rx="10" ry="10" fill="#ffffff" stroke="#374151" stroke-width="2"/>
<rect x="1260" y="120" width="240" height="36" rx="10" ry="10" fill="#fff1e8" stroke="#374151" stroke-width="2"/>
<text x="1274" y="144" font-family="Inter, Arial, sans-serif" font-size="17" font-weight="700" fill="#202124" text-anchor="start">shortlist_items</text>
<text x="1276" y="174" font-family="Inter, Arial, sans-serif" font-size="14" font-weight="400" fill="#202124" text-anchor="start">PK id</text>
<line x1="1270" y1="182" x2="1490" y2="182" stroke="#d1d5db" stroke-width="1"/>
<text x="1276" y="196" font-family="Inter, Arial, sans-serif" font-size="14" font-weight="400" fill="#202124" text-anchor="start">FK client_id</text>
<line x1="1270" y1="204" x2="1490" y2="204" stroke="#d1d5db" stroke-width="1"/>
<text x="1276" y="218" font-family="Inter, Arial, sans-serif" font-size="14" font-weight="400" fill="#202124" text-anchor="start">FK property_id</text>
<line x1="1270" y1="226" x2="1490" y2="226" stroke="#d1d5db" stroke-width="1"/>
<text x="1276" y="240" font-family="Inter, Arial, sans-serif" font-size="14" font-weight="400" fill="#202124" text-anchor="start">note</text>
<line x1="1270" y1="248" x2="1490" y2="248" stroke="#d1d5db" stroke-width="1"/>
<text x="1276" y="262" font-family="Inter, Arial, sans-serif" font-size="14" font-weight="400" fill="#202124" text-anchor="start">created_at</text>
<rect x="830" y="520" width="320" height="206" rx="10" ry="10" fill="#ffffff" stroke="#374151" stroke-width="2"/>
<rect x="830" y="520" width="320" height="36" rx="10" ry="10" fill="#fff1e8" stroke="#374151" stroke-width="2"/>
<text x="844" y="544" font-family="Inter, Arial, sans-serif" font-size="17" font-weight="700" fill="#202124" text-anchor="start">share_messages</text>
<text x="846" y="574" font-family="Inter, Arial, sans-serif" font-size="14" font-weight="400" fill="#202124" text-anchor="start">PK id</text>
<line x1="840" y1="582" x2="1140" y2="582" stroke="#d1d5db" stroke-width="1"/>
<text x="846" y="596" font-family="Inter, Arial, sans-serif" font-size="14" font-weight="400" fill="#202124" text-anchor="start">FK client_id</text>
<line x1="840" y1="604" x2="1140" y2="604" stroke="#d1d5db" stroke-width="1"/>
<text x="846" y="618" font-family="Inter, Arial, sans-serif" font-size="14" font-weight="400" fill="#202124" text-anchor="start">channel</text>
<line x1="840" y1="626" x2="1140" y2="626" stroke="#d1d5db" stroke-width="1"/>
<text x="846" y="640" font-family="Inter, Arial, sans-serif" font-size="14" font-weight="400" fill="#202124" text-anchor="start">contact</text>
<line x1="840" y1="648" x2="1140" y2="648" stroke="#d1d5db" stroke-width="1"/>
<text x="846" y="662" font-family="Inter, Arial, sans-serif" font-size="14" font-weight="400" fill="#202124" text-anchor="start">message_text</text>
<line x1="840" y1="670" x2="1140" y2="670" stroke="#d1d5db" stroke-width="1"/>
<text x="846" y="684" font-family="Inter, Arial, sans-serif" font-size="14" font-weight="400" fill="#202124" text-anchor="start">copied_at</text>
<line x1="840" y1="692" x2="1140" y2="692" stroke="#d1d5db" stroke-width="1"/>
<text x="846" y="706" font-family="Inter, Arial, sans-serif" font-size="14" font-weight="400" fill="#202124" text-anchor="start">sent_marked_at</text>
<rect x="1180" y="520" width="280" height="206" rx="10" ry="10" fill="#ffffff" stroke="#374151" stroke-width="2"/>
<rect x="1180" y="520" width="280" height="36" rx="10" ry="10" fill="#fff1e8" stroke="#374151" stroke-width="2"/>
<text x="1194" y="544" font-family="Inter, Arial, sans-serif" font-size="17" font-weight="700" fill="#202124" text-anchor="start">search_runs</text>
<text x="1196" y="574" font-family="Inter, Arial, sans-serif" font-size="14" font-weight="400" fill="#202124" text-anchor="start">PK id</text>
<line x1="1190" y1="582" x2="1450" y2="582" stroke="#d1d5db" stroke-width="1"/>
<text x="1196" y="596" font-family="Inter, Arial, sans-serif" font-size="14" font-weight="400" fill="#202124" text-anchor="start">FK client_id</text>
<line x1="1190" y1="604" x2="1450" y2="604" stroke="#d1d5db" stroke-width="1"/>
<text x="1196" y="618" font-family="Inter, Arial, sans-serif" font-size="14" font-weight="400" fill="#202124" text-anchor="start">status</text>
<line x1="1190" y1="626" x2="1450" y2="626" stroke="#d1d5db" stroke-width="1"/>
<text x="1196" y="640" font-family="Inter, Arial, sans-serif" font-size="14" font-weight="400" fill="#202124" text-anchor="start">property_type</text>
<line x1="1190" y1="648" x2="1450" y2="648" stroke="#d1d5db" stroke-width="1"/>
<text x="1196" y="662" font-family="Inter, Arial, sans-serif" font-size="14" font-weight="400" fill="#202124" text-anchor="start">total_found</text>
<line x1="1190" y1="670" x2="1450" y2="670" stroke="#d1d5db" stroke-width="1"/>
<text x="1196" y="684" font-family="Inter, Arial, sans-serif" font-size="14" font-weight="400" fill="#202124" text-anchor="start">total_saved</text>
<line x1="1190" y1="692" x2="1450" y2="692" stroke="#d1d5db" stroke-width="1"/>
<text x="1196" y="706" font-family="Inter, Arial, sans-serif" font-size="14" font-weight="400" fill="#202124" text-anchor="start">error_message</text>
<line x1="320" y1="250" x2="420" y2="250" stroke="#374151" stroke-width="2" marker-end="url(#arrow)"/>
<text x="370" y="234" font-family="Inter, Arial, sans-serif" font-size="16" font-weight="700" fill="#fd6000" text-anchor="start">1 : M</text>
<line x1="740" y1="250" x2="830" y2="250" stroke="#374151" stroke-width="2" marker-end="url(#arrow)"/>
<text x="785" y="234" font-family="Inter, Arial, sans-serif" font-size="16" font-weight="700" fill="#fd6000" text-anchor="start">1 : M</text>
<line x1="740" y1="330" x2="1260" y2="250" stroke="#374151" stroke-width="2" marker-end="url(#arrow)"/>
<text x="1010" y="284" font-family="Inter, Arial, sans-serif" font-size="16" font-weight="700" fill="#fd6000" text-anchor="start">1 : M</text>
<line x1="200" y1="360" x2="910" y2="520" stroke="#374151" stroke-width="2" marker-end="url(#arrow)"/>
<text x="540" y="450" font-family="Inter, Arial, sans-serif" font-size="16" font-weight="700" fill="#fd6000" text-anchor="start">1 : M</text>
<line x1="220" y1="360" x2="1210" y2="520" stroke="#374151" stroke-width="2" marker-end="url(#arrow)"/>
<text x="700" y="470" font-family="Inter, Arial, sans-serif" font-size="16" font-weight="700" fill="#fd6000" text-anchor="start">1 : M</text>
<line x1="40" y1="998" x2="1520" y2="998" stroke="#d1d5db" stroke-width="1"/>
<text x="780" y="1026" font-family="Inter, Arial, sans-serif" font-size="18" font-weight="600" fill="#202124" text-anchor="middle">Рисунок 10 – Фрагмент ER-диаграммы базы данных: объекты недвижимости, подборки, сообщения и история поиска</text>
</svg>