<svg xmlns="http://www.w3.org/2000/svg" width="1440" height="920" viewBox="0 0 1440 920">
<rect x="0" y="0" width="1440" height="920" fill="#ffffff"/>

        <defs>
          <marker id="arrow" markerWidth="10" markerHeight="10" refX="8" refY="3" orient="auto" markerUnits="strokeWidth">
            <path d="M0,0 L0,6 L9,3 z" fill="#374151" />
          </marker>
          <marker id="arrowAccent" markerWidth="10" markerHeight="10" refX="8" refY="3" orient="auto" markerUnits="strokeWidth">
            <path d="M0,0 L0,6 L9,3 z" fill="#fd6000" />
          </marker>
        </defs>
        
<rect x="18" y="18" width="1404" height="834" rx="18" ry="18" fill="#ffffff" stroke="#d1d5db" stroke-width="2"/>
<rect x="18" y="18" width="1404" height="58" rx="18" ry="18" fill="#f8fafc" stroke="#d1d5db" stroke-width="2"/>
<text x="48" y="54" font-family="Inter, Arial, sans-serif" font-size="24" font-weight="700" fill="#202124" text-anchor="start">Список таблиц базы данных в среде TablePlus</text>
<rect x="40" y="110" width="320" height="690" rx="18" ry="18" fill="#f8fafc" stroke="#d1d5db" stroke-width="2"/>
<text x="70" y="150" font-family="Inter, Arial, sans-serif" font-size="22" font-weight="700" fill="#202124" text-anchor="start">Tables</text>
<rect x="60" y="186" width="280" height="44" rx="10" ry="10" fill="#ffffff" stroke="#d1d5db" stroke-width="2"/>
<text x="84" y="213" font-family="Inter, Arial, sans-serif" font-size="18" font-weight="400" fill="#202124" text-anchor="start">users</text>
<rect x="60" y="250" width="280" height="44" rx="10" ry="10" fill="#ffffff" stroke="#d1d5db" stroke-width="2"/>
<text x="84" y="277" font-family="Inter, Arial, sans-serif" font-size="18" font-weight="400" fill="#202124" text-anchor="start">clients</text>
<rect x="60" y="314" width="280" height="44" rx="10" ry="10" fill="#ffffff" stroke="#d1d5db" stroke-width="2"/>
<text x="84" y="341" font-family="Inter, Arial, sans-serif" font-size="18" font-weight="400" fill="#202124" text-anchor="start">client_search_profiles</text>
<rect x="60" y="378" width="280" height="44" rx="10" ry="10" fill="#ffffff" stroke="#d1d5db" stroke-width="2"/>
<text x="84" y="405" font-family="Inter, Arial, sans-serif" font-size="18" font-weight="400" fill="#202124" text-anchor="start">properties</text>
<rect x="60" y="442" width="280" height="44" rx="10" ry="10" fill="#ffffff" stroke="#d1d5db" stroke-width="2"/>
<text x="84" y="469" font-family="Inter, Arial, sans-serif" font-size="18" font-weight="400" fill="#202124" text-anchor="start">client_found_properties</text>
<rect x="60" y="506" width="280" height="44" rx="10" ry="10" fill="#ffffff" stroke="#d1d5db" stroke-width="2"/>
<text x="84" y="533" font-family="Inter, Arial, sans-serif" font-size="18" font-weight="400" fill="#202124" text-anchor="start">shortlist_items</text>
<rect x="60" y="570" width="280" height="44" rx="10" ry="10" fill="#ffffff" stroke="#d1d5db" stroke-width="2"/>
<text x="84" y="597" font-family="Inter, Arial, sans-serif" font-size="18" font-weight="400" fill="#202124" text-anchor="start">share_messages</text>
<rect x="60" y="634" width="280" height="44" rx="10" ry="10" fill="#ffffff" stroke="#d1d5db" stroke-width="2"/>
<text x="84" y="661" font-family="Inter, Arial, sans-serif" font-size="18" font-weight="400" fill="#202124" text-anchor="start">search_runs</text>
<rect x="400" y="110" width="1000" height="690" rx="18" ry="18" fill="#ffffff" stroke="#d1d5db" stroke-width="2"/>
<text x="430" y="150" font-family="Inter, Arial, sans-serif" font-size="22" font-weight="700" fill="#202124" text-anchor="start">Schema preview</text>
<rect x="440" y="200" width="300" height="206" rx="10" ry="10" fill="#ffffff" stroke="#374151" stroke-width="2"/>
<rect x="440" y="200" width="300" height="36" rx="10" ry="10" fill="#fff1e8" stroke="#374151" stroke-width="2"/>
<text x="454" y="224" font-family="Inter, Arial, sans-serif" font-size="17" font-weight="700" fill="#202124" text-anchor="start">clients</text>
<text x="456" y="254" font-family="Inter, Arial, sans-serif" font-size="14" font-weight="400" fill="#202124" text-anchor="start">id</text>
<line x1="450" y1="262" x2="730" y2="262" stroke="#d1d5db" stroke-width="1"/>
<text x="456" y="276" font-family="Inter, Arial, sans-serif" font-size="14" font-weight="400" fill="#202124" text-anchor="start">realtor_id</text>
<line x1="450" y1="284" x2="730" y2="284" stroke="#d1d5db" stroke-width="1"/>
<text x="456" y="298" font-family="Inter, Arial, sans-serif" font-size="14" font-weight="400" fill="#202124" text-anchor="start">name</text>
<line x1="450" y1="306" x2="730" y2="306" stroke="#d1d5db" stroke-width="1"/>
<text x="456" y="320" font-family="Inter, Arial, sans-serif" font-size="14" font-weight="400" fill="#202124" text-anchor="start">phone</text>
<line x1="450" y1="328" x2="730" y2="328" stroke="#d1d5db" stroke-width="1"/>
<text x="456" y="342" font-family="Inter, Arial, sans-serif" font-size="14" font-weight="400" fill="#202124" text-anchor="start">send_channel</text>
<line x1="450" y1="350" x2="730" y2="350" stroke="#d1d5db" stroke-width="1"/>
<text x="456" y="364" font-family="Inter, Arial, sans-serif" font-size="14" font-weight="400" fill="#202124" text-anchor="start">status</text>
<line x1="450" y1="372" x2="730" y2="372" stroke="#d1d5db" stroke-width="1"/>
<text x="456" y="386" font-family="Inter, Arial, sans-serif" font-size="14" font-weight="400" fill="#202124" text-anchor="start">property_type</text>
<rect x="780" y="200" width="300" height="206" rx="10" ry="10" fill="#ffffff" stroke="#374151" stroke-width="2"/>
<rect x="780" y="200" width="300" height="36" rx="10" ry="10" fill="#fff1e8" stroke="#374151" stroke-width="2"/>
<text x="794" y="224" font-family="Inter, Arial, sans-serif" font-size="17" font-weight="700" fill="#202124" text-anchor="start">properties</text>
<text x="796" y="254" font-family="Inter, Arial, sans-serif" font-size="14" font-weight="400" fill="#202124" text-anchor="start">id</text>
<line x1="790" y1="262" x2="1070" y2="262" stroke="#d1d5db" stroke-width="1"/>
<text x="796" y="276" font-family="Inter, Arial, sans-serif" font-size="14" font-weight="400" fill="#202124" text-anchor="start">source_url</text>
<line x1="790" y1="284" x2="1070" y2="284" stroke="#d1d5db" stroke-width="1"/>
<text x="796" y="298" font-family="Inter, Arial, sans-serif" font-size="14" font-weight="400" fill="#202124" text-anchor="start">title</text>
<line x1="790" y1="306" x2="1070" y2="306" stroke="#d1d5db" stroke-width="1"/>
<text x="796" y="320" font-family="Inter, Arial, sans-serif" font-size="14" font-weight="400" fill="#202124" text-anchor="start">district</text>
<line x1="790" y1="328" x2="1070" y2="328" stroke="#d1d5db" stroke-width="1"/>
<text x="796" y="342" font-family="Inter, Arial, sans-serif" font-size="14" font-weight="400" fill="#202124" text-anchor="start">price</text>
<line x1="790" y1="350" x2="1070" y2="350" stroke="#d1d5db" stroke-width="1"/>
<text x="796" y="364" font-family="Inter, Arial, sans-serif" font-size="14" font-weight="400" fill="#202124" text-anchor="start">area</text>
<line x1="790" y1="372" x2="1070" y2="372" stroke="#d1d5db" stroke-width="1"/>
<text x="796" y="386" font-family="Inter, Arial, sans-serif" font-size="14" font-weight="400" fill="#202124" text-anchor="start">rooms</text>
<rect x="1120" y="200" width="240" height="184" rx="10" ry="10" fill="#ffffff" stroke="#374151" stroke-width="2"/>
<rect x="1120" y="200" width="240" height="36" rx="10" ry="10" fill="#fff1e8" stroke="#374151" stroke-width="2"/>
<text x="1134" y="224" font-family="Inter, Arial, sans-serif" font-size="17" font-weight="700" fill="#202124" text-anchor="start">search_runs</text>
<text x="1136" y="254" font-family="Inter, Arial, sans-serif" font-size="14" font-weight="400" fill="#202124" text-anchor="start">id</text>
<line x1="1130" y1="262" x2="1350" y2="262" stroke="#d1d5db" stroke-width="1"/>
<text x="1136" y="276" font-family="Inter, Arial, sans-serif" font-size="14" font-weight="400" fill="#202124" text-anchor="start">client_id</text>
<line x1="1130" y1="284" x2="1350" y2="284" stroke="#d1d5db" stroke-width="1"/>
<text x="1136" y="298" font-family="Inter, Arial, sans-serif" font-size="14" font-weight="400" fill="#202124" text-anchor="start">status</text>
<line x1="1130" y1="306" x2="1350" y2="306" stroke="#d1d5db" stroke-width="1"/>
<text x="1136" y="320" font-family="Inter, Arial, sans-serif" font-size="14" font-weight="400" fill="#202124" text-anchor="start">total_found</text>
<line x1="1130" y1="328" x2="1350" y2="328" stroke="#d1d5db" stroke-width="1"/>
<text x="1136" y="342" font-family="Inter, Arial, sans-serif" font-size="14" font-weight="400" fill="#202124" text-anchor="start">total_saved</text>
<line x1="1130" y1="350" x2="1350" y2="350" stroke="#d1d5db" stroke-width="1"/>
<text x="1136" y="364" font-family="Inter, Arial, sans-serif" font-size="14" font-weight="400" fill="#202124" text-anchor="start">error_message</text>
<line x1="40" y1="878" x2="1400" y2="878" stroke="#d1d5db" stroke-width="1"/>
<text x="720" y="906" font-family="Inter, Arial, sans-serif" font-size="18" font-weight="600" fill="#202124" text-anchor="middle">Рисунок 22 – Список таблиц базы данных в среде TablePlus</text>
</svg>