<svg xmlns="http://www.w3.org/2000/svg" width="1360" height="2230" viewBox="0 0 1360 2230">
<rect x="0" y="0" width="1360" height="2230" fill="#ffffff"/>

        <defs>
          <marker id="arrow" markerWidth="10" markerHeight="10" refX="8" refY="3" orient="auto" markerUnits="strokeWidth">
            <path d="M0,0 L0,6 L9,3 z" fill="#374151" />
          </marker>
          <marker id="arrowAccent" markerWidth="10" markerHeight="10" refX="8" refY="3" orient="auto" markerUnits="strokeWidth">
            <path d="M0,0 L0,6 L9,3 z" fill="#fd6000" />
          </marker>
        </defs>
        
<text x="80" y="70" font-family="Inter, Arial, sans-serif" font-size="28" font-weight="700" fill="#202124" text-anchor="start">Блок-схема алгоритма поиска объектов недвижимости по профилю клиента</text>
<circle cx="610" cy="154" r="24" fill="#fff1e8" stroke="#fd6000" stroke-width="2"/>
<text x="610" y="160" font-family="Inter, Arial, sans-serif" font-size="15" font-weight="400" fill="#202124" text-anchor="middle">Старт</text>
<rect x="430" y="212" width="360" height="72" rx="14" ry="14" fill="#ffffff" stroke="#374151" stroke-width="2"/>
<text x="454" y="254" font-family="Inter, Arial, sans-serif" font-size="16" font-weight="400" fill="#202124" text-anchor="start">Получение client_id,</text>
<text x="454" y="274" font-family="Inter, Arial, sans-serif" font-size="16" font-weight="400" fill="#202124" text-anchor="start">propertyType и searchProfile</text>
<line x1="610" y1="180" x2="610" y2="210" stroke="#374151" stroke-width="2" marker-end="url(#arrow)"/>
<rect x="430" y="316" width="360" height="72" rx="14" ry="14" fill="#ffffff" stroke="#374151" stroke-width="2"/>
<text x="454" y="358" font-family="Inter, Arial, sans-serif" font-size="16" font-weight="400" fill="#202124" text-anchor="start">Загрузка актуального профиля</text>
<text x="454" y="378" font-family="Inter, Arial, sans-serif" font-size="16" font-weight="400" fill="#202124" text-anchor="start">клиента из БД</text>
<line x1="610" y1="274" x2="610" y2="314" stroke="#374151" stroke-width="2" marker-end="url(#arrow)"/>
<polygon points="610,420 790,472 610,524 430,472" fill="#fff7ed" stroke="#fd6000" stroke-width="2"/>
<text x="500" y="468" font-family="Inter, Arial, sans-serif" font-size="15" font-weight="400" fill="#202124" text-anchor="start">Профиль найден?</text>
<line x1="430" y1="472" x2="260" y2="472" stroke="#fd6000" stroke-width="2" marker-end="url(#arrowAccent)"/>
<text x="250" y="456" font-family="Inter, Arial, sans-serif" font-size="14" font-weight="400" fill="#fd6000" text-anchor="start">нет</text>
<rect x="80" y="438" width="180" height="70" rx="12" ry="12" fill="#fef2f2" stroke="#dc2626" stroke-width="2"/>
<text x="96" y="476" font-family="Inter, Arial, sans-serif" font-size="15" font-weight="700" fill="#dc2626" text-anchor="start">Вернуть ошибку</text>
<text x="96" y="494" font-family="Inter, Arial, sans-serif" font-size="15" font-weight="700" fill="#dc2626" text-anchor="start">поиска профиля</text>
<text x="632" y="544" font-family="Inter, Arial, sans-serif" font-size="14" font-weight="400" fill="#fd6000" text-anchor="start">да</text>
<line x1="610" y1="378" x2="610" y2="434" stroke="#374151" stroke-width="2" marker-end="url(#arrow)"/>
<rect x="430" y="568" width="360" height="72" rx="14" ry="14" fill="#ffffff" stroke="#374151" stroke-width="2"/>
<text x="454" y="610" font-family="Inter, Arial, sans-serif" font-size="16" font-weight="400" fill="#202124" text-anchor="start">Определение списка</text>
<text x="454" y="630" font-family="Inter, Arial, sans-serif" font-size="16" font-weight="400" fill="#202124" text-anchor="start">SourceConfig по типу</text>
<text x="454" y="650" font-family="Inter, Arial, sans-serif" font-size="16" font-weight="400" fill="#202124" text-anchor="start">недвижимости</text>
<line x1="610" y1="498" x2="610" y2="566" stroke="#374151" stroke-width="2" marker-end="url(#arrow)"/>
<rect x="430" y="672" width="360" height="72" rx="14" ry="14" fill="#ffffff" stroke="#374151" stroke-width="2"/>
<text x="454" y="714" font-family="Inter, Arial, sans-serif" font-size="16" font-weight="400" fill="#202124" text-anchor="start">Формирование набора стартовых</text>
<text x="454" y="734" font-family="Inter, Arial, sans-serif" font-size="16" font-weight="400" fill="#202124" text-anchor="start">URL</text>
<line x1="610" y1="630" x2="610" y2="670" stroke="#374151" stroke-width="2" marker-end="url(#arrow)"/>
<rect x="430" y="776" width="360" height="72" rx="14" ry="14" fill="#ffffff" stroke="#374151" stroke-width="2"/>
<text x="454" y="818" font-family="Inter, Arial, sans-serif" font-size="16" font-weight="400" fill="#202124" text-anchor="start">HTTP-загрузка страниц</text>
<text x="454" y="838" font-family="Inter, Arial, sans-serif" font-size="16" font-weight="400" fill="#202124" text-anchor="start">источников</text>
<line x1="610" y1="734" x2="610" y2="774" stroke="#374151" stroke-width="2" marker-end="url(#arrow)"/>
<rect x="430" y="880" width="360" height="72" rx="14" ry="14" fill="#ffffff" stroke="#374151" stroke-width="2"/>
<text x="454" y="922" font-family="Inter, Arial, sans-serif" font-size="16" font-weight="400" fill="#202124" text-anchor="start">Разбор JSON-LD и HTML-карточек</text>
<line x1="610" y1="838" x2="610" y2="878" stroke="#374151" stroke-width="2" marker-end="url(#arrow)"/>
<polygon points="610,984 790,1036 610,1088 430,1036" fill="#fff7ed" stroke="#fd6000" stroke-width="2"/>
<text x="500" y="1032" font-family="Inter, Arial, sans-serif" font-size="15" font-weight="400" fill="#202124" text-anchor="start">Есть обязательные поля</text>
<text x="500" y="1050" font-family="Inter, Arial, sans-serif" font-size="15" font-weight="400" fill="#202124" text-anchor="start">и sourceUrl?</text>
<line x1="430" y1="1036" x2="260" y2="1036" stroke="#fd6000" stroke-width="2" marker-end="url(#arrowAccent)"/>
<text x="250" y="1020" font-family="Inter, Arial, sans-serif" font-size="14" font-weight="400" fill="#fd6000" text-anchor="start">нет</text>
<rect x="80" y="1002" width="180" height="70" rx="12" ry="12" fill="#fef2f2" stroke="#dc2626" stroke-width="2"/>
<text x="96" y="1040" font-family="Inter, Arial, sans-serif" font-size="15" font-weight="700" fill="#dc2626" text-anchor="start">Пропустить</text>
<text x="96" y="1058" font-family="Inter, Arial, sans-serif" font-size="15" font-weight="700" fill="#dc2626" text-anchor="start">карточку объекта</text>
<text x="632" y="1108" font-family="Inter, Arial, sans-serif" font-size="14" font-weight="400" fill="#fd6000" text-anchor="start">да</text>
<line x1="610" y1="942" x2="610" y2="998" stroke="#374151" stroke-width="2" marker-end="url(#arrow)"/>
<rect x="430" y="1132" width="360" height="72" rx="14" ry="14" fill="#ffffff" stroke="#374151" stroke-width="2"/>
<text x="454" y="1174" font-family="Inter, Arial, sans-serif" font-size="16" font-weight="400" fill="#202124" text-anchor="start">Проверка города, района и</text>
<text x="454" y="1194" font-family="Inter, Arial, sans-serif" font-size="16" font-weight="400" fill="#202124" text-anchor="start">локации объекта</text>
<line x1="610" y1="1062" x2="610" y2="1130" stroke="#374151" stroke-width="2" marker-end="url(#arrow)"/>
<polygon points="610,1236 790,1288 610,1340 430,1288" fill="#fff7ed" stroke="#fd6000" stroke-width="2"/>
<text x="500" y="1284" font-family="Inter, Arial, sans-serif" font-size="15" font-weight="400" fill="#202124" text-anchor="start">Объект относится к</text>
<text x="500" y="1302" font-family="Inter, Arial, sans-serif" font-size="15" font-weight="400" fill="#202124" text-anchor="start">Краснодару?</text>
<line x1="430" y1="1288" x2="260" y2="1288" stroke="#fd6000" stroke-width="2" marker-end="url(#arrowAccent)"/>
<text x="250" y="1272" font-family="Inter, Arial, sans-serif" font-size="14" font-weight="400" fill="#fd6000" text-anchor="start">нет</text>
<rect x="80" y="1254" width="180" height="70" rx="12" ry="12" fill="#fef2f2" stroke="#dc2626" stroke-width="2"/>
<text x="96" y="1292" font-family="Inter, Arial, sans-serif" font-size="15" font-weight="700" fill="#dc2626" text-anchor="start">Отклонить объект</text>
<text x="96" y="1310" font-family="Inter, Arial, sans-serif" font-size="15" font-weight="700" fill="#dc2626" text-anchor="start">по географии</text>
<text x="632" y="1360" font-family="Inter, Arial, sans-serif" font-size="14" font-weight="400" fill="#fd6000" text-anchor="start">да</text>
<line x1="610" y1="1194" x2="610" y2="1250" stroke="#374151" stroke-width="2" marker-end="url(#arrow)"/>
<rect x="430" y="1384" width="360" height="72" rx="14" ry="14" fill="#ffffff" stroke="#374151" stroke-width="2"/>
<text x="454" y="1426" font-family="Inter, Arial, sans-serif" font-size="16" font-weight="400" fill="#202124" text-anchor="start">Нормализация заголовка,</text>
<text x="454" y="1446" font-family="Inter, Arial, sans-serif" font-size="16" font-weight="400" fill="#202124" text-anchor="start">описания и характеристик</text>
<line x1="610" y1="1314" x2="610" y2="1382" stroke="#374151" stroke-width="2" marker-end="url(#arrow)"/>
<rect x="430" y="1488" width="360" height="72" rx="14" ry="14" fill="#ffffff" stroke="#374151" stroke-width="2"/>
<text x="454" y="1530" font-family="Inter, Arial, sans-serif" font-size="16" font-weight="400" fill="#202124" text-anchor="start">Проверка бюджета и типа</text>
<text x="454" y="1550" font-family="Inter, Arial, sans-serif" font-size="16" font-weight="400" fill="#202124" text-anchor="start">объекта</text>
<line x1="610" y1="1446" x2="610" y2="1486" stroke="#374151" stroke-width="2" marker-end="url(#arrow)"/>
<rect x="430" y="1592" width="360" height="72" rx="14" ry="14" fill="#ffffff" stroke="#374151" stroke-width="2"/>
<text x="454" y="1634" font-family="Inter, Arial, sans-serif" font-size="16" font-weight="400" fill="#202124" text-anchor="start">Расчет matchScore,</text>
<text x="454" y="1654" font-family="Inter, Arial, sans-serif" font-size="16" font-weight="400" fill="#202124" text-anchor="start">matchReasons и mismatchReasons</text>
<line x1="610" y1="1550" x2="610" y2="1590" stroke="#374151" stroke-width="2" marker-end="url(#arrow)"/>
<rect x="430" y="1696" width="360" height="72" rx="14" ry="14" fill="#ffffff" stroke="#374151" stroke-width="2"/>
<text x="454" y="1738" font-family="Inter, Arial, sans-serif" font-size="16" font-weight="400" fill="#202124" text-anchor="start">Upsert записи в properties</text>
<line x1="610" y1="1654" x2="610" y2="1694" stroke="#374151" stroke-width="2" marker-end="url(#arrow)"/>
<rect x="430" y="1800" width="360" height="72" rx="14" ry="14" fill="#ffffff" stroke="#374151" stroke-width="2"/>
<text x="454" y="1842" font-family="Inter, Arial, sans-serif" font-size="16" font-weight="400" fill="#202124" text-anchor="start">Сохранение связи в</text>
<text x="454" y="1862" font-family="Inter, Arial, sans-serif" font-size="16" font-weight="400" fill="#202124" text-anchor="start">client_found_properties</text>
<line x1="610" y1="1758" x2="610" y2="1798" stroke="#374151" stroke-width="2" marker-end="url(#arrow)"/>
<rect x="430" y="1904" width="360" height="72" rx="14" ry="14" fill="#ffffff" stroke="#374151" stroke-width="2"/>
<text x="454" y="1946" font-family="Inter, Arial, sans-serif" font-size="16" font-weight="400" fill="#202124" text-anchor="start">Обновление total_found,</text>
<text x="454" y="1966" font-family="Inter, Arial, sans-serif" font-size="16" font-weight="400" fill="#202124" text-anchor="start">total_saved и статуса клиента</text>
<line x1="610" y1="1862" x2="610" y2="1902" stroke="#374151" stroke-width="2" marker-end="url(#arrow)"/>
<circle cx="610" cy="2032" r="24" fill="#fff1e8" stroke="#fd6000" stroke-width="2"/>
<text x="610" y="2038" font-family="Inter, Arial, sans-serif" font-size="15" font-weight="400" fill="#202124" text-anchor="middle">Конец</text>
<line x1="610" y1="1966" x2="610" y2="1994" stroke="#374151" stroke-width="2" marker-end="url(#arrow)"/>
<line x1="40" y1="2188" x2="1320" y2="2188" stroke="#d1d5db" stroke-width="1"/>
<text x="680" y="2216" font-family="Inter, Arial, sans-serif" font-size="18" font-weight="600" fill="#202124" text-anchor="middle">Рисунок 11 – Блок-схема алгоритма поиска объектов недвижимости по профилю клиента</text>
</svg>