<svg xmlns="http://www.w3.org/2000/svg" width="1280" height="1400" viewBox="0 0 1280 1400">
<rect x="0" y="0" width="1280" height="1400" fill="#ffffff"/>

        <defs>
          <marker id="arrow" markerWidth="10" markerHeight="10" refX="8" refY="3" orient="auto" markerUnits="strokeWidth">
            <path d="M0,0 L0,6 L9,3 z" fill="#374151" />
          </marker>
          <marker id="arrowAccent" markerWidth="10" markerHeight="10" refX="8" refY="3" orient="auto" markerUnits="strokeWidth">
            <path d="M0,0 L0,6 L9,3 z" fill="#fd6000" />
          </marker>
        </defs>
        
<text x="80" y="70" font-family="Inter, Arial, sans-serif" font-size="28" font-weight="700" fill="#202124" text-anchor="start">Блок-схема алгоритма поиска объектов недвижимости по профилю клиента</text>
<circle cx="610" cy="154" r="24" fill="#fff1e8" stroke="#fd6000" stroke-width="2"/>
<text x="610" y="160" font-family="Inter, Arial, sans-serif" font-size="15" font-weight="400" fill="#202124" text-anchor="middle">Старт</text>
<rect x="430" y="212" width="360" height="72" rx="14" ry="14" fill="#ffffff" stroke="#374151" stroke-width="2"/>
<text x="454" y="254" font-family="Inter, Arial, sans-serif" font-size="16" font-weight="400" fill="#202124" text-anchor="start">Получение параметров клиента</text>
<line x1="610" y1="180" x2="610" y2="210" stroke="#374151" stroke-width="2" marker-end="url(#arrow)"/>
<rect x="430" y="316" width="360" height="72" rx="14" ry="14" fill="#ffffff" stroke="#374151" stroke-width="2"/>
<text x="454" y="358" font-family="Inter, Arial, sans-serif" font-size="16" font-weight="400" fill="#202124" text-anchor="start">Выбор источников по типу</text>
<text x="454" y="378" font-family="Inter, Arial, sans-serif" font-size="16" font-weight="400" fill="#202124" text-anchor="start">недвижимости</text>
<line x1="610" y1="274" x2="610" y2="314" stroke="#374151" stroke-width="2" marker-end="url(#arrow)"/>
<rect x="430" y="420" width="360" height="72" rx="14" ry="14" fill="#ffffff" stroke="#374151" stroke-width="2"/>
<text x="454" y="462" font-family="Inter, Arial, sans-serif" font-size="16" font-weight="400" fill="#202124" text-anchor="start">Загрузка страниц источников</text>
<line x1="610" y1="378" x2="610" y2="418" stroke="#374151" stroke-width="2" marker-end="url(#arrow)"/>
<rect x="430" y="524" width="360" height="72" rx="14" ry="14" fill="#ffffff" stroke="#374151" stroke-width="2"/>
<text x="454" y="566" font-family="Inter, Arial, sans-serif" font-size="16" font-weight="400" fill="#202124" text-anchor="start">Извлечение карточек объектов</text>
<line x1="610" y1="482" x2="610" y2="522" stroke="#374151" stroke-width="2" marker-end="url(#arrow)"/>
<polygon points="610,628 790,680 610,732 430,680" fill="#fff7ed" stroke="#fd6000" stroke-width="2"/>
<text x="500" y="676" font-family="Inter, Arial, sans-serif" font-size="15" font-weight="400" fill="#202124" text-anchor="start">Объект извлечен</text>
<text x="500" y="694" font-family="Inter, Arial, sans-serif" font-size="15" font-weight="400" fill="#202124" text-anchor="start">корректно?</text>
<line x1="610" y1="586" x2="610" y2="642" stroke="#374151" stroke-width="2" marker-end="url(#arrow)"/>
<rect x="430" y="776" width="360" height="72" rx="14" ry="14" fill="#ffffff" stroke="#374151" stroke-width="2"/>
<text x="454" y="818" font-family="Inter, Arial, sans-serif" font-size="16" font-weight="400" fill="#202124" text-anchor="start">Фильтрация по Краснодару</text>
<line x1="610" y1="706" x2="610" y2="774" stroke="#374151" stroke-width="2" marker-end="url(#arrow)"/>
<rect x="430" y="880" width="360" height="72" rx="14" ry="14" fill="#ffffff" stroke="#374151" stroke-width="2"/>
<text x="454" y="922" font-family="Inter, Arial, sans-serif" font-size="16" font-weight="400" fill="#202124" text-anchor="start">Нормализация характеристик</text>
<line x1="610" y1="838" x2="610" y2="878" stroke="#374151" stroke-width="2" marker-end="url(#arrow)"/>
<rect x="430" y="984" width="360" height="72" rx="14" ry="14" fill="#ffffff" stroke="#374151" stroke-width="2"/>
<text x="454" y="1026" font-family="Inter, Arial, sans-serif" font-size="16" font-weight="400" fill="#202124" text-anchor="start">Расчет процента совпадения</text>
<line x1="610" y1="942" x2="610" y2="982" stroke="#374151" stroke-width="2" marker-end="url(#arrow)"/>
<rect x="430" y="1088" width="360" height="72" rx="14" ry="14" fill="#ffffff" stroke="#374151" stroke-width="2"/>
<text x="454" y="1130" font-family="Inter, Arial, sans-serif" font-size="16" font-weight="400" fill="#202124" text-anchor="start">Сохранение результатов</text>
<line x1="610" y1="1046" x2="610" y2="1086" stroke="#374151" stroke-width="2" marker-end="url(#arrow)"/>
<circle cx="610" cy="1216" r="24" fill="#fff1e8" stroke="#fd6000" stroke-width="2"/>
<text x="610" y="1222" font-family="Inter, Arial, sans-serif" font-size="15" font-weight="400" fill="#202124" text-anchor="middle">Конец</text>
<line x1="610" y1="1150" x2="610" y2="1178" stroke="#374151" stroke-width="2" marker-end="url(#arrow)"/>
<line x1="40" y1="1358" x2="1240" y2="1358" stroke="#d1d5db" stroke-width="1"/>
<text x="640" y="1386" font-family="Inter, Arial, sans-serif" font-size="18" font-weight="600" fill="#202124" text-anchor="middle">Рисунок 11 – Блок-схема алгоритма поиска объектов недвижимости по профилю клиента</text>
</svg>