<svg xmlns="http://www.w3.org/2000/svg" width="1280" height="1400" viewBox="0 0 1280 1400">
<rect x="0" y="0" width="1280" height="1400" fill="#ffffff"/>

        <defs>
          <marker id="arrow" markerWidth="10" markerHeight="10" refX="8" refY="3" orient="auto" markerUnits="strokeWidth">
            <path d="M0,0 L0,6 L9,3 z" fill="#374151" />
          </marker>
          <marker id="arrowAccent" markerWidth="10" markerHeight="10" refX="8" refY="3" orient="auto" markerUnits="strokeWidth">
            <path d="M0,0 L0,6 L9,3 z" fill="#fd6000" />
          </marker>
        </defs>
        
<text x="80" y="70" font-family="Inter, Arial, sans-serif" font-size="28" font-weight="700" fill="#202124" text-anchor="start">Блок-схема алгоритма фильтрации объектов по городу Краснодару</text>
<circle cx="610" cy="154" r="24" fill="#fff1e8" stroke="#fd6000" stroke-width="2"/>
<text x="610" y="160" font-family="Inter, Arial, sans-serif" font-size="15" font-weight="400" fill="#202124" text-anchor="middle">Старт</text>
<rect x="430" y="212" width="360" height="72" rx="14" ry="14" fill="#ffffff" stroke="#374151" stroke-width="2"/>
<text x="454" y="254" font-family="Inter, Arial, sans-serif" font-size="16" font-weight="400" fill="#202124" text-anchor="start">Получение текста объявления и</text>
<text x="454" y="274" font-family="Inter, Arial, sans-serif" font-size="16" font-weight="400" fill="#202124" text-anchor="start">URL</text>
<line x1="610" y1="180" x2="610" y2="210" stroke="#374151" stroke-width="2" marker-end="url(#arrow)"/>
<rect x="430" y="316" width="360" height="72" rx="14" ry="14" fill="#ffffff" stroke="#374151" stroke-width="2"/>
<text x="454" y="358" font-family="Inter, Arial, sans-serif" font-size="16" font-weight="400" fill="#202124" text-anchor="start">Поиск прямого указания на</text>
<text x="454" y="378" font-family="Inter, Arial, sans-serif" font-size="16" font-weight="400" fill="#202124" text-anchor="start">Краснодар</text>
<line x1="610" y1="274" x2="610" y2="314" stroke="#374151" stroke-width="2" marker-end="url(#arrow)"/>
<polygon points="610,420 790,472 610,524 430,472" fill="#fff7ed" stroke="#fd6000" stroke-width="2"/>
<text x="500" y="468" font-family="Inter, Arial, sans-serif" font-size="15" font-weight="400" fill="#202124" text-anchor="start">Найден Краснодар?</text>
<line x1="610" y1="378" x2="610" y2="434" stroke="#374151" stroke-width="2" marker-end="url(#arrow)"/>
<rect x="430" y="568" width="360" height="72" rx="14" ry="14" fill="#ffffff" stroke="#374151" stroke-width="2"/>
<text x="454" y="610" font-family="Inter, Arial, sans-serif" font-size="16" font-weight="400" fill="#202124" text-anchor="start">Поиск названий районов</text>
<text x="454" y="630" font-family="Inter, Arial, sans-serif" font-size="16" font-weight="400" fill="#202124" text-anchor="start">Краснодара</text>
<line x1="610" y1="498" x2="610" y2="566" stroke="#374151" stroke-width="2" marker-end="url(#arrow)"/>
<polygon points="610,672 790,724 610,776 430,724" fill="#fff7ed" stroke="#fd6000" stroke-width="2"/>
<text x="500" y="720" font-family="Inter, Arial, sans-serif" font-size="15" font-weight="400" fill="#202124" text-anchor="start">Найден район</text>
<text x="500" y="738" font-family="Inter, Arial, sans-serif" font-size="15" font-weight="400" fill="#202124" text-anchor="start">Краснодара?</text>
<line x1="610" y1="630" x2="610" y2="686" stroke="#374151" stroke-width="2" marker-end="url(#arrow)"/>
<rect x="430" y="820" width="360" height="72" rx="14" ry="14" fill="#ffffff" stroke="#374151" stroke-width="2"/>
<text x="454" y="862" font-family="Inter, Arial, sans-serif" font-size="16" font-weight="400" fill="#202124" text-anchor="start">Поиск названий других городов</text>
<text x="454" y="882" font-family="Inter, Arial, sans-serif" font-size="16" font-weight="400" fill="#202124" text-anchor="start">края</text>
<line x1="610" y1="750" x2="610" y2="818" stroke="#374151" stroke-width="2" marker-end="url(#arrow)"/>
<polygon points="610,924 790,976 610,1028 430,976" fill="#fff7ed" stroke="#fd6000" stroke-width="2"/>
<text x="500" y="972" font-family="Inter, Arial, sans-serif" font-size="15" font-weight="400" fill="#202124" text-anchor="start">Обнаружен другой</text>
<text x="500" y="990" font-family="Inter, Arial, sans-serif" font-size="15" font-weight="400" fill="#202124" text-anchor="start">город?</text>
<line x1="610" y1="882" x2="610" y2="938" stroke="#374151" stroke-width="2" marker-end="url(#arrow)"/>
<rect x="430" y="1072" width="360" height="72" rx="14" ry="14" fill="#ffffff" stroke="#374151" stroke-width="2"/>
<text x="454" y="1114" font-family="Inter, Arial, sans-serif" font-size="16" font-weight="400" fill="#202124" text-anchor="start">Допустить объект</text>
<line x1="610" y1="1002" x2="610" y2="1070" stroke="#374151" stroke-width="2" marker-end="url(#arrow)"/>
<circle cx="610" cy="1200" r="24" fill="#fff1e8" stroke="#fd6000" stroke-width="2"/>
<text x="610" y="1206" font-family="Inter, Arial, sans-serif" font-size="15" font-weight="400" fill="#202124" text-anchor="middle">Конец</text>
<line x1="610" y1="1134" x2="610" y2="1162" stroke="#374151" stroke-width="2" marker-end="url(#arrow)"/>
<line x1="40" y1="1358" x2="1240" y2="1358" stroke="#d1d5db" stroke-width="1"/>
<text x="640" y="1386" font-family="Inter, Arial, sans-serif" font-size="18" font-weight="600" fill="#202124" text-anchor="middle">Рисунок 13 – Блок-схема алгоритма фильтрации объектов по городу Краснодару</text>
</svg>