<svg xmlns="http://www.w3.org/2000/svg" width="1500" height="980" viewBox="0 0 1500 980">
<rect x="0" y="0" width="1500" height="980" fill="#ffffff"/>

        <defs>
          <marker id="arrow" markerWidth="10" markerHeight="10" refX="8" refY="3" orient="auto" markerUnits="strokeWidth">
            <path d="M0,0 L0,6 L9,3 z" fill="#374151" />
          </marker>
          <marker id="arrowAccent" markerWidth="10" markerHeight="10" refX="8" refY="3" orient="auto" markerUnits="strokeWidth">
            <path d="M0,0 L0,6 L9,3 z" fill="#fd6000" />
          </marker>
        </defs>
        
<circle cx="110" cy="160" r="18" fill="#fff" stroke="#374151" stroke-width="2"/>
<line x1="110" y1="178" x2="110" y2="230" stroke="#374151" stroke-width="2"/>
<line x1="86" y1="198" x2="134" y2="198" stroke="#374151" stroke-width="2"/>
<line x1="110" y1="230" x2="88" y2="260" stroke="#374151" stroke-width="2"/>
<line x1="110" y1="230" x2="132" y2="260" stroke="#374151" stroke-width="2"/>
<text x="110" y="288" font-family="Inter, Arial, sans-serif" font-size="17" font-weight="400" fill="#202124" text-anchor="middle">Риелтор</text>
<rect x="250" y="60" width="1180" height="820" rx="24" ry="24" fill="#ffffff" stroke="#374151" stroke-width="2"/>
<text x="280" y="100" font-family="Inter, Arial, sans-serif" font-size="22" font-weight="700" fill="#202124" text-anchor="start">Система «Тэона»</text>
<ellipse cx="450" cy="185" rx="110" ry="35" fill="#fff7ed" stroke="#fd6000" stroke-width="2"/>
<text x="450" y="175" font-family="Inter, Arial, sans-serif" font-size="15" font-weight="400" fill="#202124" text-anchor="middle">Авторизоваться</text>
<text x="450" y="195" font-family="Inter, Arial, sans-serif" font-size="15" font-weight="400" fill="#202124" text-anchor="middle">в системе</text>
<line x1="134" y1="180" x2="340" y2="185" stroke="#d1d5db" stroke-width="2"/>
<ellipse cx="750" cy="185" rx="110" ry="35" fill="#fff7ed" stroke="#fd6000" stroke-width="2"/>
<text x="750" y="175" font-family="Inter, Arial, sans-serif" font-size="15" font-weight="400" fill="#202124" text-anchor="middle">Просмотреть</text>
<text x="750" y="195" font-family="Inter, Arial, sans-serif" font-size="15" font-weight="400" fill="#202124" text-anchor="middle">dashboard</text>
<line x1="134" y1="180" x2="640" y2="185" stroke="#d1d5db" stroke-width="2"/>
<ellipse cx="1050" cy="185" rx="110" ry="35" fill="#fff7ed" stroke="#fd6000" stroke-width="2"/>
<text x="1050" y="175" font-family="Inter, Arial, sans-serif" font-size="15" font-weight="400" fill="#202124" text-anchor="middle">Создать карточку</text>
<text x="1050" y="195" font-family="Inter, Arial, sans-serif" font-size="15" font-weight="400" fill="#202124" text-anchor="middle">клиента</text>
<line x1="134" y1="180" x2="940" y2="185" stroke="#d1d5db" stroke-width="2"/>
<ellipse cx="1350" cy="185" rx="110" ry="35" fill="#fff7ed" stroke="#fd6000" stroke-width="2"/>
<text x="1350" y="175" font-family="Inter, Arial, sans-serif" font-size="15" font-weight="400" fill="#202124" text-anchor="middle">Изменить карточку</text>
<text x="1350" y="195" font-family="Inter, Arial, sans-serif" font-size="15" font-weight="400" fill="#202124" text-anchor="middle">клиента</text>
<line x1="134" y1="180" x2="1240" y2="185" stroke="#d1d5db" stroke-width="2"/>
<ellipse cx="450" cy="345" rx="110" ry="35" fill="#fff7ed" stroke="#fd6000" stroke-width="2"/>
<text x="450" y="335" font-family="Inter, Arial, sans-serif" font-size="15" font-weight="400" fill="#202124" text-anchor="middle">Запустить поиск</text>
<text x="450" y="355" font-family="Inter, Arial, sans-serif" font-size="15" font-weight="400" fill="#202124" text-anchor="middle">объектов</text>
<line x1="134" y1="180" x2="340" y2="345" stroke="#d1d5db" stroke-width="2"/>
<ellipse cx="750" cy="345" rx="110" ry="35" fill="#fff7ed" stroke="#fd6000" stroke-width="2"/>
<text x="750" y="335" font-family="Inter, Arial, sans-serif" font-size="15" font-weight="400" fill="#202124" text-anchor="middle">Просмотреть найденные</text>
<text x="750" y="355" font-family="Inter, Arial, sans-serif" font-size="15" font-weight="400" fill="#202124" text-anchor="middle">объекты</text>
<line x1="134" y1="180" x2="640" y2="345" stroke="#d1d5db" stroke-width="2"/>
<ellipse cx="1050" cy="345" rx="110" ry="35" fill="#fff7ed" stroke="#fd6000" stroke-width="2"/>
<text x="1050" y="335" font-family="Inter, Arial, sans-serif" font-size="15" font-weight="400" fill="#202124" text-anchor="middle">Открыть подробности</text>
<text x="1050" y="355" font-family="Inter, Arial, sans-serif" font-size="15" font-weight="400" fill="#202124" text-anchor="middle">объекта</text>
<ellipse cx="1350" cy="345" rx="110" ry="35" fill="#fff7ed" stroke="#fd6000" stroke-width="2"/>
<text x="1350" y="335" font-family="Inter, Arial, sans-serif" font-size="15" font-weight="400" fill="#202124" text-anchor="middle">Добавить объект</text>
<text x="1350" y="355" font-family="Inter, Arial, sans-serif" font-size="15" font-weight="400" fill="#202124" text-anchor="middle">в подборку</text>
<line x1="134" y1="180" x2="1240" y2="345" stroke="#d1d5db" stroke-width="2"/>
<ellipse cx="600" cy="535" rx="110" ry="35" fill="#fff7ed" stroke="#fd6000" stroke-width="2"/>
<text x="600" y="525" font-family="Inter, Arial, sans-serif" font-size="15" font-weight="400" fill="#202124" text-anchor="middle">Удалить объект</text>
<text x="600" y="545" font-family="Inter, Arial, sans-serif" font-size="15" font-weight="400" fill="#202124" text-anchor="middle">из подборки</text>
<ellipse cx="900" cy="535" rx="110" ry="35" fill="#fff7ed" stroke="#fd6000" stroke-width="2"/>
<text x="900" y="525" font-family="Inter, Arial, sans-serif" font-size="15" font-weight="400" fill="#202124" text-anchor="middle">Сформировать текст</text>
<text x="900" y="545" font-family="Inter, Arial, sans-serif" font-size="15" font-weight="400" fill="#202124" text-anchor="middle">сообщения</text>
<line x1="134" y1="180" x2="790" y2="535" stroke="#d1d5db" stroke-width="2"/>
<ellipse cx="1200" cy="535" rx="110" ry="35" fill="#fff7ed" stroke="#fd6000" stroke-width="2"/>
<text x="1200" y="525" font-family="Inter, Arial, sans-serif" font-size="15" font-weight="400" fill="#202124" text-anchor="middle">Отметить подборку</text>
<text x="1200" y="545" font-family="Inter, Arial, sans-serif" font-size="15" font-weight="400" fill="#202124" text-anchor="middle">как отправленную</text>
<line x1="134" y1="180" x2="1090" y2="535" stroke="#d1d5db" stroke-width="2"/>
<line x1="1050" y1="220" x2="1050" y2="310" stroke="#fd6000" stroke-width="2" stroke-dasharray="6,4" marker-end="url(#arrowAccent)"/>
<text x="1070" y="272" font-family="Inter, Arial, sans-serif" font-size="14" font-weight="400" fill="#fd6000" text-anchor="start">&lt;&lt;include&gt;&gt;</text>
<line x1="750" y1="380" x2="1050" y2="345" stroke="#fd6000" stroke-width="2" stroke-dasharray="6,4" marker-end="url(#arrowAccent)"/>
<text x="860" y="350" font-family="Inter, Arial, sans-serif" font-size="14" font-weight="400" fill="#fd6000" text-anchor="start">&lt;&lt;extend&gt;&gt;</text>
<line x1="1350" y1="380" x2="900" y2="500" stroke="#fd6000" stroke-width="2" stroke-dasharray="6,4" marker-end="url(#arrowAccent)"/>
<text x="1120" y="450" font-family="Inter, Arial, sans-serif" font-size="14" font-weight="400" fill="#fd6000" text-anchor="start">&lt;&lt;include&gt;&gt;</text>
<line x1="900" y1="570" x2="1200" y2="535" stroke="#fd6000" stroke-width="2" stroke-dasharray="6,4" marker-end="url(#arrowAccent)"/>
<text x="1020" y="520" font-family="Inter, Arial, sans-serif" font-size="14" font-weight="400" fill="#fd6000" text-anchor="start">&lt;&lt;extend&gt;&gt;</text>
<line x1="40" y1="938" x2="1460" y2="938" stroke="#d1d5db" stroke-width="1"/>
<text x="750" y="966" font-family="Inter, Arial, sans-serif" font-size="18" font-weight="600" fill="#202124" text-anchor="middle">Рисунок 1 – Общая диаграмма вариантов использования программных модулей системы «Тэона»</text>
</svg>