<svg xmlns="http://www.w3.org/2000/svg" width="1560" height="1120" viewBox="0 0 1560 1120">
<rect x="0" y="0" width="1560" height="1120" fill="#ffffff"/>

        <defs>
          <marker id="arrow" markerWidth="10" markerHeight="10" refX="8" refY="3" orient="auto" markerUnits="strokeWidth">
            <path d="M0,0 L0,6 L9,3 z" fill="#374151" />
          </marker>
          <marker id="arrowAccent" markerWidth="10" markerHeight="10" refX="8" refY="3" orient="auto" markerUnits="strokeWidth">
            <path d="M0,0 L0,6 L9,3 z" fill="#fd6000" />
          </marker>
        </defs>
        
<rect x="18" y="18" width="1524" height="1034" rx="18" ry="18" fill="#ffffff" stroke="#d1d5db" stroke-width="2"/>
<rect x="18" y="18" width="1524" height="58" rx="18" ry="18" fill="#f8fafc" stroke="#d1d5db" stroke-width="2"/>
<text x="48" y="54" font-family="Inter, Arial, sans-serif" font-size="24" font-weight="700" fill="#202124" text-anchor="start">Экранная форма карточки клиента с найденными объектами</text>
<text x="60" y="130" font-family="Inter, Arial, sans-serif" font-size="36" font-weight="700" fill="#202124" text-anchor="start">Иван Иванов</text>
<text x="60" y="168" font-family="Inter, Arial, sans-serif" font-size="18" font-weight="400" fill="#6b7280" text-anchor="start">до 8 млн ₽ · 1–2 комн. · Прикубанский, Центральный</text>
<rect x="60" y="200" width="360" height="84" rx="16" ry="16" fill="#ffffff" stroke="#d1d5db" stroke-width="2"/>
<text x="90" y="238" font-family="Inter, Arial, sans-serif" font-size="20" font-weight="400" fill="#202124" text-anchor="start">В подборке</text>
<text x="90" y="272" font-family="Inter, Arial, sans-serif" font-size="34" font-weight="700" fill="#202124" text-anchor="start">7 объектов</text>
<rect x="450" y="200" width="360" height="84" rx="16" ry="16" fill="#ffffff" stroke="#d1d5db" stroke-width="2"/>
<text x="480" y="238" font-family="Inter, Arial, sans-serif" font-size="20" font-weight="400" fill="#202124" text-anchor="start">Найдено</text>
<text x="480" y="272" font-family="Inter, Arial, sans-serif" font-size="34" font-weight="700" fill="#202124" text-anchor="start">81 объект</text>
<rect x="1180" y="212" width="300" height="56" rx="14" ry="14" fill="#ffffff" stroke="#fd6000" stroke-width="2"/>
<text x="1330" y="248" font-family="Inter, Arial, sans-serif" font-size="20" font-weight="700" fill="#fd6000" text-anchor="middle">Обновить поиск</text>
<rect x="60" y="320" width="980" height="710" rx="16" ry="16" fill="#ffffff" stroke="#d1d5db" stroke-width="2"/>
<text x="78" y="348" font-family="Inter, Arial, sans-serif" font-size="20" font-weight="700" fill="#202124" text-anchor="start">Найденные объекты</text>
<rect x="90" y="390" width="410" height="250" rx="18" ry="18" fill="#ffffff" stroke="#d1d5db" stroke-width="2"/>
<rect x="90" y="390" width="410" height="110" rx="18" ry="18" fill="#f3f4f6" stroke="#d1d5db" stroke-width="2"/>
<text x="110" y="530" font-family="Inter, Arial, sans-serif" font-size="22" font-weight="700" fill="#202124" text-anchor="start">1-к квартира, 40.6 м²</text>
<text x="110" y="564" font-family="Inter, Arial, sans-serif" font-size="18" font-weight="400" fill="#6b7280" text-anchor="start">Прикубанский · 5 275 000 ₽</text>
<text x="110" y="596" font-family="Inter, Arial, sans-serif" font-size="18" font-weight="400" fill="#202124" text-anchor="start">Совпадение: 68%</text>
<rect x="110" y="606" width="160" height="14" rx="8" ry="8" fill="#fd6000" stroke="#fd6000" stroke-width="2"/>
<rect x="290" y="606" width="170" height="14" rx="8" ry="8" fill="#e5e7eb" stroke="#e5e7eb" stroke-width="2"/>
<rect x="110" y="594" width="150" height="42" rx="10" ry="10" fill="#ffffff" stroke="#d1d5db" stroke-width="2"/>
<text x="185" y="622" font-family="Inter, Arial, sans-serif" font-size="16" font-weight="400" fill="#202124" text-anchor="middle">Подробнее</text>
<rect x="310" y="594" width="150" height="42" rx="10" ry="10" fill="#fd6000" stroke="#fd6000" stroke-width="2"/>
<text x="385" y="622" font-family="Inter, Arial, sans-serif" font-size="16" font-weight="700" fill="#ffffff" text-anchor="middle">В подборку</text>
<rect x="550" y="390" width="410" height="250" rx="18" ry="18" fill="#ffffff" stroke="#d1d5db" stroke-width="2"/>
<rect x="550" y="390" width="410" height="110" rx="18" ry="18" fill="#f3f4f6" stroke="#d1d5db" stroke-width="2"/>
<text x="570" y="530" font-family="Inter, Arial, sans-serif" font-size="22" font-weight="700" fill="#202124" text-anchor="start">1-к квартира, 40.6 м²</text>
<text x="570" y="564" font-family="Inter, Arial, sans-serif" font-size="18" font-weight="400" fill="#6b7280" text-anchor="start">Прикубанский · 5 275 000 ₽</text>
<text x="570" y="596" font-family="Inter, Arial, sans-serif" font-size="18" font-weight="400" fill="#202124" text-anchor="start">Совпадение: 68%</text>
<rect x="570" y="606" width="160" height="14" rx="8" ry="8" fill="#fd6000" stroke="#fd6000" stroke-width="2"/>
<rect x="750" y="606" width="170" height="14" rx="8" ry="8" fill="#e5e7eb" stroke="#e5e7eb" stroke-width="2"/>
<rect x="570" y="594" width="150" height="42" rx="10" ry="10" fill="#ffffff" stroke="#d1d5db" stroke-width="2"/>
<text x="645" y="622" font-family="Inter, Arial, sans-serif" font-size="16" font-weight="400" fill="#202124" text-anchor="middle">Подробнее</text>
<rect x="770" y="594" width="150" height="42" rx="10" ry="10" fill="#fd6000" stroke="#fd6000" stroke-width="2"/>
<text x="845" y="622" font-family="Inter, Arial, sans-serif" font-size="16" font-weight="700" fill="#ffffff" text-anchor="middle">В подборку</text>
<rect x="90" y="690" width="410" height="250" rx="18" ry="18" fill="#ffffff" stroke="#d1d5db" stroke-width="2"/>
<rect x="90" y="690" width="410" height="110" rx="18" ry="18" fill="#f3f4f6" stroke="#d1d5db" stroke-width="2"/>
<text x="110" y="830" font-family="Inter, Arial, sans-serif" font-size="22" font-weight="700" fill="#202124" text-anchor="start">1-к квартира, 40.6 м²</text>
<text x="110" y="864" font-family="Inter, Arial, sans-serif" font-size="18" font-weight="400" fill="#6b7280" text-anchor="start">Прикубанский · 5 275 000 ₽</text>
<text x="110" y="896" font-family="Inter, Arial, sans-serif" font-size="18" font-weight="400" fill="#202124" text-anchor="start">Совпадение: 68%</text>
<rect x="110" y="906" width="160" height="14" rx="8" ry="8" fill="#fd6000" stroke="#fd6000" stroke-width="2"/>
<rect x="290" y="906" width="170" height="14" rx="8" ry="8" fill="#e5e7eb" stroke="#e5e7eb" stroke-width="2"/>
<rect x="110" y="894" width="150" height="42" rx="10" ry="10" fill="#ffffff" stroke="#d1d5db" stroke-width="2"/>
<text x="185" y="922" font-family="Inter, Arial, sans-serif" font-size="16" font-weight="400" fill="#202124" text-anchor="middle">Подробнее</text>
<rect x="310" y="894" width="150" height="42" rx="10" ry="10" fill="#fd6000" stroke="#fd6000" stroke-width="2"/>
<text x="385" y="922" font-family="Inter, Arial, sans-serif" font-size="16" font-weight="700" fill="#ffffff" text-anchor="middle">В подборку</text>
<rect x="550" y="690" width="410" height="250" rx="18" ry="18" fill="#ffffff" stroke="#d1d5db" stroke-width="2"/>
<rect x="550" y="690" width="410" height="110" rx="18" ry="18" fill="#f3f4f6" stroke="#d1d5db" stroke-width="2"/>
<text x="570" y="830" font-family="Inter, Arial, sans-serif" font-size="22" font-weight="700" fill="#202124" text-anchor="start">1-к квартира, 40.6 м²</text>
<text x="570" y="864" font-family="Inter, Arial, sans-serif" font-size="18" font-weight="400" fill="#6b7280" text-anchor="start">Прикубанский · 5 275 000 ₽</text>
<text x="570" y="896" font-family="Inter, Arial, sans-serif" font-size="18" font-weight="400" fill="#202124" text-anchor="start">Совпадение: 68%</text>
<rect x="570" y="906" width="160" height="14" rx="8" ry="8" fill="#fd6000" stroke="#fd6000" stroke-width="2"/>
<rect x="750" y="906" width="170" height="14" rx="8" ry="8" fill="#e5e7eb" stroke="#e5e7eb" stroke-width="2"/>
<rect x="570" y="894" width="150" height="42" rx="10" ry="10" fill="#ffffff" stroke="#d1d5db" stroke-width="2"/>
<text x="645" y="922" font-family="Inter, Arial, sans-serif" font-size="16" font-weight="400" fill="#202124" text-anchor="middle">Подробнее</text>
<rect x="770" y="894" width="150" height="42" rx="10" ry="10" fill="#fd6000" stroke="#fd6000" stroke-width="2"/>
<text x="845" y="922" font-family="Inter, Arial, sans-serif" font-size="16" font-weight="700" fill="#ffffff" text-anchor="middle">В подборку</text>
<rect x="1080" y="320" width="400" height="710" rx="16" ry="16" fill="#ffffff" stroke="#d1d5db" stroke-width="2"/>
<text x="1098" y="348" font-family="Inter, Arial, sans-serif" font-size="20" font-weight="700" fill="#202124" text-anchor="start">Подборка</text>
<rect x="1110" y="390" width="340" height="90" rx="14" ry="14" fill="#ffffff" stroke="#d1d5db" stroke-width="2"/>
<text x="1130" y="424" font-family="Inter, Arial, sans-serif" font-size="18" font-weight="700" fill="#202124" text-anchor="start">1-й объект</text>
<text x="1130" y="452" font-family="Inter, Arial, sans-serif" font-size="16" font-weight="400" fill="#6b7280" text-anchor="start">краткое описание и цена</text>
<rect x="1110" y="510" width="340" height="90" rx="14" ry="14" fill="#ffffff" stroke="#d1d5db" stroke-width="2"/>
<text x="1130" y="544" font-family="Inter, Arial, sans-serif" font-size="18" font-weight="700" fill="#202124" text-anchor="start">2-й объект</text>
<text x="1130" y="572" font-family="Inter, Arial, sans-serif" font-size="16" font-weight="400" fill="#6b7280" text-anchor="start">краткое описание и цена</text>
<rect x="1110" y="630" width="340" height="90" rx="14" ry="14" fill="#ffffff" stroke="#d1d5db" stroke-width="2"/>
<text x="1130" y="664" font-family="Inter, Arial, sans-serif" font-size="18" font-weight="700" fill="#202124" text-anchor="start">3-й объект</text>
<text x="1130" y="692" font-family="Inter, Arial, sans-serif" font-size="16" font-weight="400" fill="#6b7280" text-anchor="start">краткое описание и цена</text>
<rect x="1110" y="750" width="340" height="90" rx="14" ry="14" fill="#ffffff" stroke="#d1d5db" stroke-width="2"/>
<text x="1130" y="784" font-family="Inter, Arial, sans-serif" font-size="18" font-weight="700" fill="#202124" text-anchor="start">4-й объект</text>
<text x="1130" y="812" font-family="Inter, Arial, sans-serif" font-size="16" font-weight="400" fill="#6b7280" text-anchor="start">краткое описание и цена</text>
<rect x="1110" y="930" width="340" height="54" rx="14" ry="14" fill="#fd6000" stroke="#fd6000" stroke-width="2"/>
<text x="1280" y="964" font-family="Inter, Arial, sans-serif" font-size="20" font-weight="700" fill="#ffffff" text-anchor="middle">Сформировать сообщение</text>
<line x1="40" y1="1078" x2="1520" y2="1078" stroke="#d1d5db" stroke-width="1"/>
<text x="780" y="1106" font-family="Inter, Arial, sans-serif" font-size="18" font-weight="600" fill="#202124" text-anchor="middle">Рисунок 20 – Экранная форма карточки клиента с найденными объектами</text>
</svg>