<svg xmlns="http://www.w3.org/2000/svg" width="1440" height="920" viewBox="0 0 1440 920">
<rect x="0" y="0" width="1440" height="920" fill="#ffffff"/>

        <defs>
          <marker id="arrow" markerWidth="10" markerHeight="10" refX="8" refY="3" orient="auto" markerUnits="strokeWidth">
            <path d="M0,0 L0,6 L9,3 z" fill="#374151" />
          </marker>
          <marker id="arrowAccent" markerWidth="10" markerHeight="10" refX="8" refY="3" orient="auto" markerUnits="strokeWidth">
            <path d="M0,0 L0,6 L9,3 z" fill="#fd6000" />
          </marker>
        </defs>
        
<rect x="18" y="18" width="1404" height="834" rx="18" ry="18" fill="#ffffff" stroke="#d1d5db" stroke-width="2"/>
<rect x="18" y="18" width="1404" height="58" rx="18" ry="18" fill="#f8fafc" stroke="#d1d5db" stroke-width="2"/>
<text x="48" y="54" font-family="Inter, Arial, sans-serif" font-size="24" font-weight="700" fill="#202124" text-anchor="start">Страница входа в систему</text>
<rect x="420" y="170" width="600" height="520" rx="24" ry="24" fill="#ffffff" stroke="#d1d5db" stroke-width="2"/>
<text x="470" y="240" font-family="Inter, Arial, sans-serif" font-size="36" font-weight="700" fill="#202124" text-anchor="start">Тэона</text>
<text x="470" y="282" font-family="Inter, Arial, sans-serif" font-size="18" font-weight="400" fill="#6b7280" text-anchor="start">Система сопровождения клиентских заявок риелтора</text>
<text x="470" y="360" font-family="Inter, Arial, sans-serif" font-size="18" font-weight="600" fill="#202124" text-anchor="start">Логин</text>
<rect x="470" y="378" width="500" height="60" rx="14" ry="14" fill="#ffffff" stroke="#d1d5db" stroke-width="2"/>
<text x="470" y="480" font-family="Inter, Arial, sans-serif" font-size="18" font-weight="600" fill="#202124" text-anchor="start">Пароль</text>
<rect x="470" y="498" width="500" height="60" rx="14" ry="14" fill="#ffffff" stroke="#d1d5db" stroke-width="2"/>
<rect x="470" y="620" width="240" height="64" rx="16" ry="16" fill="#fd6000" stroke="#fd6000" stroke-width="2"/>
<text x="590" y="660" font-family="Inter, Arial, sans-serif" font-size="22" font-weight="700" fill="#ffffff" text-anchor="middle">Войти</text>
<line x1="40" y1="878" x2="1400" y2="878" stroke="#d1d5db" stroke-width="1"/>
<text x="720" y="906" font-family="Inter, Arial, sans-serif" font-size="18" font-weight="600" fill="#202124" text-anchor="middle">Рисунок 16 – Экранная форма страницы входа в систему</text>
</svg>