<svg xmlns="http://www.w3.org/2000/svg" width="1520" height="980" viewBox="0 0 1520 980">
<rect x="0" y="0" width="1520" height="980" fill="#ffffff"/>

        <defs>
          <marker id="arrow" markerWidth="10" markerHeight="10" refX="8" refY="3" orient="auto" markerUnits="strokeWidth">
            <path d="M0,0 L0,6 L9,3 z" fill="#374151" />
          </marker>
          <marker id="arrowAccent" markerWidth="10" markerHeight="10" refX="8" refY="3" orient="auto" markerUnits="strokeWidth">
            <path d="M0,0 L0,6 L9,3 z" fill="#fd6000" />
          </marker>
        </defs>
        
<rect x="18" y="18" width="1484" height="894" rx="18" ry="18" fill="#ffffff" stroke="#d1d5db" stroke-width="2"/>
<rect x="18" y="18" width="1484" height="58" rx="18" ry="18" fill="#f8fafc" stroke="#d1d5db" stroke-width="2"/>
<text x="48" y="54" font-family="Inter, Arial, sans-serif" font-size="24" font-weight="700" fill="#202124" text-anchor="start">Экранная форма списка клиентов</text>
<rect x="40" y="108" width="320" height="56" rx="14" ry="14" fill="#ffffff" stroke="#d1d5db" stroke-width="2"/>
<text x="62" y="143" font-family="Inter, Arial, sans-serif" font-size="18" font-weight="400" fill="#6b7280" text-anchor="start">Поиск по имени или телефону</text>
<rect x="390" y="108" width="140" height="56" rx="14" ry="14" fill="#fff1e8" stroke="#fd6000" stroke-width="2"/>
<text x="460" y="143" font-family="Inter, Arial, sans-serif" font-size="18" font-weight="400" fill="#202124" text-anchor="middle">Все</text>
<rect x="546" y="108" width="140" height="56" rx="14" ry="14" fill="#ffffff" stroke="#d1d5db" stroke-width="2"/>
<text x="616" y="143" font-family="Inter, Arial, sans-serif" font-size="18" font-weight="400" fill="#202124" text-anchor="middle">new</text>
<rect x="702" y="108" width="140" height="56" rx="14" ry="14" fill="#ffffff" stroke="#d1d5db" stroke-width="2"/>
<text x="772" y="143" font-family="Inter, Arial, sans-serif" font-size="18" font-weight="400" fill="#202124" text-anchor="middle">found</text>
<rect x="858" y="108" width="140" height="56" rx="14" ry="14" fill="#ffffff" stroke="#d1d5db" stroke-width="2"/>
<text x="928" y="143" font-family="Inter, Arial, sans-serif" font-size="18" font-weight="400" fill="#202124" text-anchor="middle">shortlist_ready</text>
<rect x="1014" y="108" width="140" height="56" rx="14" ry="14" fill="#ffffff" stroke="#d1d5db" stroke-width="2"/>
<text x="1084" y="143" font-family="Inter, Arial, sans-serif" font-size="18" font-weight="400" fill="#202124" text-anchor="middle">sent</text>
<rect x="1170" y="108" width="140" height="56" rx="14" ry="14" fill="#ffffff" stroke="#d1d5db" stroke-width="2"/>
<text x="1240" y="143" font-family="Inter, Arial, sans-serif" font-size="18" font-weight="400" fill="#202124" text-anchor="middle">error</text>
<rect x="40" y="200" width="1440" height="650" rx="16" ry="16" fill="#ffffff" stroke="#d1d5db" stroke-width="2"/>
<text x="58" y="228" font-family="Inter, Arial, sans-serif" font-size="20" font-weight="700" fill="#202124" text-anchor="start">Клиентские заявки</text>
<line x1="70" y1="322" x2="1440" y2="322" stroke="#d1d5db" stroke-width="1"/>
<text x="90" y="270" font-family="Inter, Arial, sans-serif" font-size="20" font-weight="700" fill="#202124" text-anchor="start">Иван Иванов 1</text>
<text x="90" y="302" font-family="Inter, Arial, sans-serif" font-size="16" font-weight="400" fill="#6b7280" text-anchor="start">до 8 млн ₽ · 1–2 комн. · Прикубанский, Центральный</text>
<rect x="870" y="252" width="140" height="42" rx="10" ry="10" fill="#ffffff" stroke="#d1d5db" stroke-width="2"/>
<text x="940" y="279" font-family="Inter, Arial, sans-serif" font-size="16" font-weight="400" fill="#202124" text-anchor="middle">found</text>
<text x="1080" y="274" font-family="Inter, Arial, sans-serif" font-size="18" font-weight="400" fill="#202124" text-anchor="start">Найдено: 81</text>
<text x="1230" y="274" font-family="Inter, Arial, sans-serif" font-size="18" font-weight="400" fill="#202124" text-anchor="start">В подборке: 7</text>
<rect x="1330" y="250" width="100" height="44" rx="10" ry="10" fill="#ffffff" stroke="#fd6000" stroke-width="2"/>
<text x="1380" y="278" font-family="Inter, Arial, sans-serif" font-size="16" font-weight="600" fill="#fd6000" text-anchor="middle">Открыть</text>
<line x1="70" y1="432" x2="1440" y2="432" stroke="#d1d5db" stroke-width="1"/>
<text x="90" y="380" font-family="Inter, Arial, sans-serif" font-size="20" font-weight="700" fill="#202124" text-anchor="start">Иван Иванов 2</text>
<text x="90" y="412" font-family="Inter, Arial, sans-serif" font-size="16" font-weight="400" fill="#6b7280" text-anchor="start">до 8 млн ₽ · 1–2 комн. · Прикубанский, Центральный</text>
<rect x="870" y="362" width="140" height="42" rx="10" ry="10" fill="#ffffff" stroke="#d1d5db" stroke-width="2"/>
<text x="940" y="389" font-family="Inter, Arial, sans-serif" font-size="16" font-weight="400" fill="#202124" text-anchor="middle">found</text>
<text x="1080" y="384" font-family="Inter, Arial, sans-serif" font-size="18" font-weight="400" fill="#202124" text-anchor="start">Найдено: 81</text>
<text x="1230" y="384" font-family="Inter, Arial, sans-serif" font-size="18" font-weight="400" fill="#202124" text-anchor="start">В подборке: 7</text>
<rect x="1330" y="360" width="100" height="44" rx="10" ry="10" fill="#ffffff" stroke="#fd6000" stroke-width="2"/>
<text x="1380" y="388" font-family="Inter, Arial, sans-serif" font-size="16" font-weight="600" fill="#fd6000" text-anchor="middle">Открыть</text>
<line x1="70" y1="542" x2="1440" y2="542" stroke="#d1d5db" stroke-width="1"/>
<text x="90" y="490" font-family="Inter, Arial, sans-serif" font-size="20" font-weight="700" fill="#202124" text-anchor="start">Иван Иванов 3</text>
<text x="90" y="522" font-family="Inter, Arial, sans-serif" font-size="16" font-weight="400" fill="#6b7280" text-anchor="start">до 8 млн ₽ · 1–2 комн. · Прикубанский, Центральный</text>
<rect x="870" y="472" width="140" height="42" rx="10" ry="10" fill="#ffffff" stroke="#d1d5db" stroke-width="2"/>
<text x="940" y="499" font-family="Inter, Arial, sans-serif" font-size="16" font-weight="400" fill="#202124" text-anchor="middle">found</text>
<text x="1080" y="494" font-family="Inter, Arial, sans-serif" font-size="18" font-weight="400" fill="#202124" text-anchor="start">Найдено: 81</text>
<text x="1230" y="494" font-family="Inter, Arial, sans-serif" font-size="18" font-weight="400" fill="#202124" text-anchor="start">В подборке: 7</text>
<rect x="1330" y="470" width="100" height="44" rx="10" ry="10" fill="#ffffff" stroke="#fd6000" stroke-width="2"/>
<text x="1380" y="498" font-family="Inter, Arial, sans-serif" font-size="16" font-weight="600" fill="#fd6000" text-anchor="middle">Открыть</text>
<line x1="70" y1="652" x2="1440" y2="652" stroke="#d1d5db" stroke-width="1"/>
<text x="90" y="600" font-family="Inter, Arial, sans-serif" font-size="20" font-weight="700" fill="#202124" text-anchor="start">Иван Иванов 4</text>
<text x="90" y="632" font-family="Inter, Arial, sans-serif" font-size="16" font-weight="400" fill="#6b7280" text-anchor="start">до 8 млн ₽ · 1–2 комн. · Прикубанский, Центральный</text>
<rect x="870" y="582" width="140" height="42" rx="10" ry="10" fill="#ffffff" stroke="#d1d5db" stroke-width="2"/>
<text x="940" y="609" font-family="Inter, Arial, sans-serif" font-size="16" font-weight="400" fill="#202124" text-anchor="middle">found</text>
<text x="1080" y="604" font-family="Inter, Arial, sans-serif" font-size="18" font-weight="400" fill="#202124" text-anchor="start">Найдено: 81</text>
<text x="1230" y="604" font-family="Inter, Arial, sans-serif" font-size="18" font-weight="400" fill="#202124" text-anchor="start">В подборке: 7</text>
<rect x="1330" y="580" width="100" height="44" rx="10" ry="10" fill="#ffffff" stroke="#fd6000" stroke-width="2"/>
<text x="1380" y="608" font-family="Inter, Arial, sans-serif" font-size="16" font-weight="600" fill="#fd6000" text-anchor="middle">Открыть</text>
<line x1="70" y1="762" x2="1440" y2="762" stroke="#d1d5db" stroke-width="1"/>
<text x="90" y="710" font-family="Inter, Arial, sans-serif" font-size="20" font-weight="700" fill="#202124" text-anchor="start">Иван Иванов 5</text>
<text x="90" y="742" font-family="Inter, Arial, sans-serif" font-size="16" font-weight="400" fill="#6b7280" text-anchor="start">до 8 млн ₽ · 1–2 комн. · Прикубанский, Центральный</text>
<rect x="870" y="692" width="140" height="42" rx="10" ry="10" fill="#ffffff" stroke="#d1d5db" stroke-width="2"/>
<text x="940" y="719" font-family="Inter, Arial, sans-serif" font-size="16" font-weight="400" fill="#202124" text-anchor="middle">found</text>
<text x="1080" y="714" font-family="Inter, Arial, sans-serif" font-size="18" font-weight="400" fill="#202124" text-anchor="start">Найдено: 81</text>
<text x="1230" y="714" font-family="Inter, Arial, sans-serif" font-size="18" font-weight="400" fill="#202124" text-anchor="start">В подборке: 7</text>
<rect x="1330" y="690" width="100" height="44" rx="10" ry="10" fill="#ffffff" stroke="#fd6000" stroke-width="2"/>
<text x="1380" y="718" font-family="Inter, Arial, sans-serif" font-size="16" font-weight="600" fill="#fd6000" text-anchor="middle">Открыть</text>
<line x1="40" y1="938" x2="1480" y2="938" stroke="#d1d5db" stroke-width="1"/>
<text x="760" y="966" font-family="Inter, Arial, sans-serif" font-size="18" font-weight="600" fill="#202124" text-anchor="middle">Рисунок 18 – Экранная форма списка клиентов</text>
</svg>